<svg preserveAspectRatio="none" width="1600" height="549" viewBox="0 0 1600 549" fill="none"
  xmlns="http://www.w3.org/2000/svg">
  <path
    d="M0.0424194 0.956787L37.8593 27.5327C75.6695 54.5982 151.091 107.013 227.775 115.01C303.688 122.507 380.658 84.3604 456.499 72.2715C533.447 60.6869 610.061 73.9468 685.108 121.093C760.94 167.76 835.888 247.098 912.579 254.605C988.597 262.594 1065.82 197.52 1143.2 153.259C1219.59 108.984 1296.62 83.0784 1372.19 91.0608C1448.77 98.567 1524.02 138.739 1562.7 158.838L1600.27 178.923"
    stroke="white" stroke-opacity="0.15" />
  <path
    d="M-0.277344 213.416L39.9504 233.055C80.2242 253.136 160.39 291.773 237.036 290.224C312.866 288.312 384.839 245.132 458.496 225.571C533.299 206.339 610.44 209.542 689.671 243.473C769.626 276.881 852.216 339.844 928.816 337.853C1004.8 336.372 1074.13 268.889 1145.86 220.148C1216.6 171.51 1289.94 139.359 1365.49 137.924C1441.98 135.944 1520.66 163.563 1561.05 177.265L1600.34 191.08"
    stroke="white" stroke-opacity="0.07" />
  <path
    d="M-0.512878 509.386L43.2067 521.578C87.0488 534.197 174.087 558.001 250.66 542.836C326.352 527.458 391.054 472.103 461.521 439.723C533.194 407.461 611.084 396.89 696.372 416.223C782.296 434.913 875.964 482.255 952.414 466.661C1028.34 451.68 1086.19 372.85 1149.69 312.061C1212.21 251.549 1280.19 206.817 1355.68 191.96C1432.02 176.397 1515.67 189.609 1558.53 195.923L1600.3 202.544"
    stroke="white" stroke-opacity="0.03" />
</svg>