<svg width="600" height="340" viewBox="0 0 600 340" fill="none" xmlns="http://www.w3.org/2000/svg">
  <path
    d="M34.5115 301.929C33.4822 302.378 32.3677 302.6 31.2429 302.58C30.0014 302.558 28.783 302.24 27.6876 301.654C26.5922 301.067 25.6512 300.228 24.9416 299.206C24.2321 298.184 23.7743 297.008 23.6057 295.774C23.4371 294.54 23.5626 293.284 23.9719 292.108C24.3811 290.932 25.0625 289.871 25.9601 289.01C26.8577 288.15 27.946 287.515 29.1356 287.158C30.2794 286.815 31.4854 286.738 32.662 286.933C33.1357 286.402 33.7129 285.974 34.3585 285.674C35.0479 285.355 35.7985 285.19 36.558 285.191M34.5115 301.929L68.6098 285.441C69.3935 285.441 70.1663 285.626 70.866 285.98C71.5657 286.335 72.1728 286.849 72.6384 287.481C73.104 288.114 73.4152 288.847 73.5469 289.622C73.6786 290.397 73.6272 291.193 73.3968 291.944M34.5115 301.929L38.2154 333.138L38.218 333.16L38.2246 333.182C38.5551 334.26 39.2215 335.203 40.1261 335.874C41.0307 336.544 42.1258 336.906 43.2506 336.906H64.0896C65.2143 336.906 66.3092 336.544 67.2137 335.873C68.1182 335.203 68.7845 334.26 69.115 333.182L69.1219 333.159L69.1245 333.136L73.6427 291.995M34.5115 301.929L73.3968 291.944M36.558 285.191C36.5581 285.191 36.5582 285.191 36.5583 285.191L36.5577 285.441V285.191H36.558ZM36.558 285.191H68.6098C69.4328 285.191 70.2443 285.385 70.9789 285.757C71.7136 286.129 72.3509 286.669 72.8397 287.333C73.3285 287.997 73.6551 288.767 73.7934 289.58C73.9303 290.386 73.8787 291.213 73.6427 291.995M73.6427 291.995L73.6453 291.972L73.3968 291.944M73.6427 291.995C73.6404 292.002 73.6381 292.01 73.6358 292.017L73.3968 291.944M27.7432 298.38C28.7146 299.354 30.0318 299.902 31.4051 299.902C32.2296 299.897 33.0397 299.691 33.7665 299.305L31.5323 292.018L27.7432 298.38ZM27.7432 298.38C26.7717 297.405 26.2257 296.083 26.2257 294.704C26.2257 293.325 26.7717 292.002 27.7432 291.028C28.7114 290.056 30.0232 289.509 31.3917 289.505M27.7432 298.38L31.3917 289.505M31.3917 289.505C31.2341 290.34 31.2816 291.203 31.5323 292.018L31.3917 289.505Z"
    fill="#F8F8F8" stroke="black" stroke-width="0.5" />
  <path
    d="M534.874 268.984L534.93 269.168C537.086 276.197 538.238 283.497 538.351 290.85C538.434 294.517 538.225 298.185 537.726 301.818L537.726 301.821C537.536 303.11 537.261 304.518 536.705 305.759C536.147 307.004 535.299 308.095 533.959 308.728C533.549 308.921 533.352 309.204 533.288 309.499C533.222 309.802 533.29 310.147 533.471 310.457C533.835 311.08 534.591 311.475 535.39 311.098C538.149 309.796 539.518 306.862 540.138 303.923C540.848 300.118 541.175 296.25 541.115 292.379L541.115 292.374C541.148 284.315 539.975 276.296 537.634 268.587L537.57 268.375L537.772 268.285C539.27 267.624 540.544 266.54 541.438 265.164C542.333 263.789 542.809 262.182 542.81 260.54L534.874 268.984ZM534.874 268.984L534.682 268.991M534.874 268.984L534.682 268.991M534.682 268.991C534.634 268.993 534.586 268.996 534.543 268.999C534.533 269 534.524 269.001 534.515 269.001C534.463 269.005 534.416 269.007 534.371 269.007C532.702 269.007 531.071 268.511 529.683 267.581C528.296 266.65 527.214 265.328 526.575 263.781C525.937 262.233 525.769 260.531 526.095 258.888C526.421 257.245 527.225 255.737 528.405 254.552C529.585 253.368 531.088 252.562 532.725 252.235C534.362 251.909 536.058 252.076 537.6 252.717C539.142 253.358 540.46 254.443 541.387 255.836C542.315 257.228 542.81 258.865 542.81 260.54L534.682 268.991Z"
    fill="#9CC68D" stroke="black" stroke-width="0.5" />
  <path
    d="M540.434 312.413C540.37 312.225 540.295 311.993 540.212 311.719C539.964 310.898 539.648 309.699 539.377 308.192C538.835 305.179 538.473 300.936 539.196 296.023C540.621 286.343 546.264 274.027 563.125 263.376L540.434 312.413Z"
    fill="#9CC68D" stroke="black" stroke-width="0.5" />
  <path
    d="M539.403 312L509.561 292.466C522.72 292.586 530.186 297.534 534.375 302.476C536.517 305.004 537.808 307.537 538.563 309.437C538.941 310.387 539.184 311.178 539.333 311.73C539.359 311.828 539.382 311.918 539.403 312Z"
    fill="#9CC68D" stroke="black" stroke-width="0.5" />
  <path
    d="M559.27 336.232H511.506C510.637 336.232 509.785 335.987 509.048 335.524C508.311 335.061 507.718 334.4 507.338 333.615L496.938 312.167L496.713 312.277L496.938 312.167C496.594 311.458 496.436 310.673 496.477 309.885C496.519 309.098 496.76 308.333 497.177 307.665C497.594 306.996 498.173 306.445 498.86 306.063C499.548 305.681 500.321 305.48 501.106 305.48H569.669C570.455 305.48 571.228 305.681 571.915 306.063C572.603 306.445 573.182 306.996 573.599 307.665C574.016 308.333 574.257 309.097 574.298 309.885C574.34 310.673 574.181 311.458 573.838 312.167L563.438 333.615C563.058 334.4 562.465 335.061 561.728 335.524C560.991 335.986 560.139 336.232 559.27 336.232Z"
    fill="#D6B49A" stroke="black" stroke-width="0.5" />
  <path
    d="M598.88 339.759H1.12002C0.922094 339.759 0.732277 339.628 0.592325 339.393C0.452373 339.159 0.373749 338.841 0.373749 338.509C0.373749 338.178 0.452373 337.86 0.592325 337.625C0.732277 337.391 0.922094 337.259 1.12002 337.259H598.88C599.078 337.259 599.268 337.391 599.408 337.625C599.548 337.86 599.626 338.178 599.626 338.509C599.626 338.841 599.548 339.159 599.408 339.393C599.268 339.628 599.078 339.759 598.88 339.759Z"
    fill="#DCDBDA" />
  <g clip-path="url(#clip0_142_4325)">
    <path
      d="M252.114 336.376L271.086 205.819C273.076 192.36 283.037 181.47 296.218 178.343L346.952 166.313L398.065 166.783L445.289 178.052C462.07 182.029 472.981 198.235 470.421 215.29L464.92 251.479L455.63 271.561C455.16 272.7 454.87 273.839 454.59 274.967L445.959 322.057C444.439 330.389 437.139 335.058 428.698 335.058L252.114 336.376Z"
      fill="#898BFE" />
    <path
      d="M458.839 198.169C458.626 198.169 458.425 198.091 458.257 197.935L453.059 193.065C452.712 192.741 452.701 192.205 453.025 191.859C453.349 191.512 453.886 191.501 454.233 191.825L459.431 196.695C459.778 197.019 459.789 197.555 459.465 197.901C459.297 198.08 459.073 198.169 458.839 198.169Z"
      fill="white" />
    <path
      d="M453.808 198.337C453.595 198.337 453.394 198.259 453.226 198.102C452.88 197.778 452.869 197.242 453.193 196.896L458.067 191.702C458.391 191.356 458.928 191.345 459.275 191.669C459.621 191.993 459.632 192.529 459.308 192.875L454.434 198.069C454.266 198.248 454.031 198.337 453.808 198.337Z"
      fill="white" />
    <path
      d="M397.931 220.765C397.719 220.765 397.518 220.687 397.35 220.531L392.151 215.661C391.805 215.337 391.794 214.801 392.118 214.455C392.442 214.109 392.979 214.097 393.325 214.421L398.524 219.291C398.87 219.615 398.882 220.151 398.557 220.497C398.39 220.676 398.166 220.765 397.931 220.765Z"
      fill="white" />
    <path
      d="M392.901 220.921C392.688 220.921 392.487 220.843 392.319 220.687C391.973 220.363 391.961 219.827 392.286 219.481L397.16 214.287C397.484 213.941 398.021 213.929 398.367 214.253C398.714 214.577 398.725 215.113 398.401 215.46L393.527 220.653C393.359 220.832 393.124 220.921 392.901 220.921Z"
      fill="white" />
    <path
      d="M346.046 198.226C342.592 198.226 339.774 195.412 339.774 191.96C339.774 188.509 342.592 185.694 346.046 185.694C349.501 185.694 352.318 188.509 352.318 191.96C352.318 195.412 349.501 198.226 346.046 198.226ZM346.046 187.392C343.531 187.392 341.474 189.436 341.474 191.96C341.474 194.484 343.519 196.528 346.046 196.528C348.573 196.528 350.619 194.484 350.619 191.96C350.619 189.436 348.562 187.392 346.046 187.392Z"
      fill="white" />
    <path
      d="M362.615 288.572C362.145 288.572 361.765 288.192 361.765 287.723C361.765 285.21 359.719 283.155 357.192 283.155C354.677 283.155 352.62 285.199 352.62 287.723C352.62 288.192 352.24 288.572 351.77 288.572C351.301 288.572 350.921 288.192 350.921 287.723C350.921 284.272 353.738 281.457 357.192 281.457C360.647 281.457 363.464 284.272 363.464 287.723C363.464 288.181 363.084 288.572 362.615 288.572Z"
      fill="white" />
    <path
      d="M285.754 204.917C285.284 204.917 284.904 204.537 284.904 204.068C284.904 201.555 282.869 199.499 280.365 199.499C277.861 199.499 275.826 201.543 275.826 204.068C275.826 204.537 275.446 204.917 274.977 204.917C274.507 204.917 274.127 204.537 274.127 204.068C274.127 200.616 276.933 197.802 280.376 197.802C283.82 197.802 286.626 200.616 286.626 204.068C286.604 204.537 286.223 204.917 285.754 204.917Z"
      fill="white" />
    <path
      d="M278.364 288.572C274.91 288.572 272.092 285.757 272.092 282.306C272.092 278.855 274.91 276.04 278.364 276.04C281.819 276.04 284.636 278.855 284.636 282.306C284.625 285.768 281.819 288.572 278.364 288.572ZM278.364 277.749C275.849 277.749 273.791 279.793 273.791 282.317C273.791 284.83 275.837 286.885 278.364 286.885C280.879 286.885 282.937 284.841 282.937 282.317C282.925 279.793 280.879 277.749 278.364 277.749Z"
      fill="white" />
    <path
      d="M329.88 241.283C329.411 241.283 329.031 240.904 329.031 240.435C329.031 238.335 330.607 237.486 331.759 236.872C332.787 236.313 333.212 236.034 333.212 235.498C333.212 235.029 333.592 234.649 334.061 234.649C334.531 234.649 334.911 235.029 334.911 235.498C334.911 237.106 333.614 237.81 332.563 238.368C331.39 238.994 330.73 239.407 330.73 240.435C330.73 240.904 330.35 241.283 329.88 241.283Z"
      fill="white" />
    <path
      d="M329.88 231.386C329.411 231.386 329.031 231.007 329.031 230.538C329.031 228.438 330.607 227.589 331.759 226.975C332.787 226.416 333.212 226.137 333.212 225.601C333.212 225.132 333.592 224.752 334.061 224.752C334.531 224.752 334.911 225.132 334.911 225.601C334.911 227.209 333.614 227.912 332.563 228.47C331.39 229.096 330.73 229.51 330.73 230.538C330.73 231.007 330.35 231.386 329.88 231.386Z"
      fill="white" />
    <path
      d="M334.05 236.333C333.581 236.333 333.201 235.954 333.201 235.484C333.201 234.937 332.776 234.658 331.747 234.111C330.596 233.485 329.019 232.636 329.019 230.548C329.019 230.078 329.4 229.699 329.869 229.699C330.339 229.699 330.719 230.078 330.719 230.548C330.719 231.575 331.412 232.011 332.552 232.614C333.592 233.172 334.9 233.876 334.9 235.484C334.9 235.954 334.52 236.333 334.05 236.333Z"
      fill="white" />
    <path
      d="M334.05 226.439C333.581 226.439 333.201 226.059 333.201 225.59C333.201 225.043 332.776 224.763 331.747 224.216C330.596 223.591 329.019 222.742 329.019 220.653C329.019 220.184 329.4 219.804 329.869 219.804C330.339 219.804 330.719 220.184 330.719 220.653C330.719 221.681 331.412 222.116 332.552 222.719C333.592 223.278 334.9 223.981 334.9 225.59C334.9 226.059 334.52 226.439 334.05 226.439Z"
      fill="white" />
    <path
      d="M291.154 242.275H278.934C278.465 242.275 278.085 241.896 278.085 241.426C278.085 240.957 278.465 240.578 278.934 240.578H291.154C291.623 240.578 292.003 240.957 292.003 241.426C292.003 241.896 291.623 242.275 291.154 242.275Z"
      fill="white" />
    <path
      d="M400.693 185.749H388.473C388.004 185.749 387.624 185.369 387.624 184.9C387.624 184.431 388.004 184.051 388.473 184.051H400.693C401.162 184.051 401.542 184.431 401.542 184.9C401.554 185.369 401.162 185.749 400.693 185.749Z"
      fill="white" />
    <path
      d="M445.423 229.7C445.21 229.7 444.987 229.622 444.819 229.454C444.484 229.119 444.484 228.583 444.819 228.248L453.461 219.614C453.797 219.279 454.333 219.279 454.669 219.614C455.004 219.949 455.004 220.485 454.669 220.82L446.027 229.454C445.859 229.611 445.635 229.7 445.423 229.7Z"
      fill="white" />
    <path
      d="M353.816 202.09C350.731 202.09 348.226 199.588 348.226 196.505C348.226 193.422 350.731 190.92 353.816 190.92C356.902 190.92 359.406 193.422 359.406 196.505C359.406 199.588 356.902 202.09 353.816 202.09ZM353.816 191.257C350.921 191.257 348.562 193.612 348.562 196.505C348.562 199.398 350.921 201.755 353.816 201.755C356.712 201.755 359.071 199.398 359.071 196.505C359.071 193.612 356.712 191.257 353.816 191.257Z"
      fill="white" />
    <path
      d="M370.552 292.26H370.217C370.217 289.367 367.858 287.01 364.962 287.01C362.067 287.01 359.708 289.367 359.708 292.26H359.372C359.372 289.177 361.877 286.675 364.962 286.675C368.048 286.675 370.552 289.188 370.552 292.26Z"
      fill="white" />
    <path
      d="M293.691 208.612H293.356C293.356 205.72 291.008 203.363 288.135 203.363C285.251 203.363 282.914 205.72 282.914 208.612H282.579C282.579 205.53 285.072 203.028 288.146 203.028C291.198 203.028 293.691 205.53 293.691 208.612Z"
      fill="white" />
    <path
      d="M286.134 292.436C283.048 292.436 280.544 289.934 280.544 286.852C280.544 283.769 283.048 281.267 286.134 281.267C289.22 281.267 291.724 283.769 291.724 286.852C291.724 289.934 289.208 292.436 286.134 292.436ZM286.134 281.613C283.238 281.613 280.879 283.97 280.879 286.863C280.879 289.756 283.238 292.112 286.134 292.112C289.029 292.112 291.388 289.756 291.388 286.863C291.377 283.959 289.029 281.613 286.134 281.613Z"
      fill="white" />
    <path
      d="M337.818 244.978H337.483C337.483 243.281 338.735 242.61 339.853 242.007C340.825 241.482 341.664 241.036 341.664 240.03H341.999C341.999 241.237 340.993 241.784 340.009 242.309C338.925 242.878 337.818 243.482 337.818 244.978Z"
      fill="white" />
    <path
      d="M337.818 235.083H337.483C337.483 233.385 338.735 232.715 339.853 232.112C340.825 231.587 341.664 231.14 341.664 230.135H341.999C341.999 231.342 340.993 231.889 340.009 232.414C338.925 232.995 337.818 233.587 337.818 235.083Z"
      fill="white" />
    <path
      d="M341.988 240.031H341.653C341.653 239.026 340.814 238.579 339.841 238.054C338.735 237.451 337.471 236.781 337.471 235.083H337.807C337.807 236.569 338.914 237.171 339.998 237.752C340.982 238.277 341.988 238.825 341.988 240.031Z"
      fill="white" />
    <path
      d="M341.988 230.136H341.653C341.653 229.13 340.814 228.683 339.841 228.159C338.735 227.555 337.471 226.885 337.471 225.188H337.807C337.807 226.673 338.914 227.276 339.998 227.857C340.982 228.382 341.988 228.929 341.988 230.136Z"
      fill="white" />
    <path d="M298.935 245.805H286.715V246.14H298.935V245.805Z" fill="white" />
    <path d="M408.474 189.268H396.254V189.603H408.474V189.268Z" fill="white" />
    <path d="M461.701 224.64L453.059 233.274L453.293 233.508L461.935 224.875L461.701 224.64Z"
      fill="white" />
    <path
      d="M377.271 254.116C377.048 254.116 376.824 254.093 376.6 254.037C375.818 253.859 375.158 253.39 374.733 252.719C374.309 252.049 374.174 251.245 374.353 250.474C374.532 249.693 375.002 249.034 375.672 248.609C376.343 248.185 377.148 248.051 377.92 248.229C378.702 248.408 379.362 248.877 379.787 249.547C380.211 250.218 380.346 251.022 380.167 251.792C379.988 252.574 379.518 253.233 378.848 253.658C378.378 253.959 377.83 254.116 377.271 254.116ZM377.26 249.849C377.025 249.849 376.79 249.916 376.578 250.05C376.287 250.229 376.086 250.519 376.008 250.854C375.93 251.189 375.986 251.536 376.176 251.826C376.354 252.116 376.645 252.317 376.98 252.396C377.316 252.474 377.662 252.418 377.953 252.228C378.244 252.049 378.445 251.759 378.523 251.424C378.602 251.089 378.546 250.743 378.356 250.452C378.177 250.162 377.886 249.961 377.551 249.883C377.461 249.86 377.361 249.849 377.26 249.849Z"
      fill="white" />
    <path
      d="M329.031 266.301C328.807 266.301 328.583 266.279 328.36 266.223C327.577 266.044 326.918 265.575 326.493 264.905C325.621 263.509 326.035 261.666 327.432 260.795C328.103 260.37 328.908 260.236 329.679 260.415C330.462 260.594 331.121 261.063 331.546 261.733C331.971 262.403 332.105 263.207 331.926 263.978C331.747 264.76 331.278 265.419 330.607 265.843C330.126 266.145 329.59 266.301 329.031 266.301ZM329.019 262.035C328.785 262.035 328.55 262.102 328.337 262.236C327.745 262.615 327.555 263.408 327.935 264C328.114 264.291 328.405 264.492 328.74 264.57C329.075 264.648 329.422 264.592 329.713 264.402C330.003 264.224 330.204 263.933 330.283 263.598C330.361 263.263 330.305 262.917 330.115 262.626C329.936 262.336 329.645 262.135 329.31 262.057C329.209 262.046 329.12 262.035 329.019 262.035Z"
      fill="white" />
    <path
      d="M317.325 198.158C317.102 198.158 316.878 198.136 316.655 198.08C315.872 197.901 315.212 197.432 314.788 196.762C314.363 196.092 314.229 195.288 314.407 194.517C314.586 193.735 315.056 193.076 315.727 192.652C316.397 192.227 317.202 192.093 317.974 192.272C318.756 192.451 319.416 192.92 319.841 193.59C320.266 194.26 320.4 195.064 320.221 195.835C320.042 196.617 319.573 197.276 318.902 197.7C318.421 198.002 317.873 198.158 317.325 198.158ZM317.314 193.891C317.079 193.891 316.845 193.958 316.632 194.093C316.342 194.271 316.14 194.562 316.062 194.897C315.984 195.232 316.04 195.578 316.23 195.868C316.409 196.159 316.699 196.36 317.035 196.438C317.37 196.516 317.717 196.46 318.007 196.271C318.298 196.092 318.499 195.801 318.578 195.466C318.656 195.131 318.6 194.785 318.41 194.495C318.231 194.204 317.94 194.003 317.605 193.925C317.504 193.903 317.404 193.891 317.314 193.891Z"
      fill="white" />
    <path
      d="M423.108 198.158C422.113 198.158 421.14 197.667 420.581 196.762C420.157 196.092 420.023 195.288 420.201 194.517C420.38 193.735 420.85 193.076 421.521 192.652C422.191 192.227 422.996 192.093 423.768 192.272C424.55 192.451 425.21 192.92 425.635 193.59C426.06 194.26 426.194 195.064 426.015 195.835C425.836 196.617 425.366 197.276 424.696 197.7C424.204 198.013 423.645 198.158 423.108 198.158ZM423.097 193.891C422.862 193.891 422.627 193.958 422.415 194.093C422.124 194.271 421.923 194.562 421.845 194.897C421.767 195.232 421.822 195.578 422.013 195.868C422.393 196.472 423.186 196.65 423.779 196.271C424.07 196.092 424.271 195.801 424.349 195.466C424.427 195.131 424.371 194.785 424.181 194.495C424.002 194.204 423.712 194.003 423.376 193.925C423.287 193.903 423.198 193.891 423.097 193.891Z"
      fill="white" />
    <path opacity="0.15"
      d="M409.927 293.744L417.518 218.609C417.608 217.66 416.289 217.38 415.998 218.33L392.476 296.213L409.927 293.744Z"
      fill="black" />
    <path
      d="M270.706 326.235C271.656 327.375 273.367 327.653 274.597 326.703L291.377 314.385L270.035 324.147C269.946 324.917 270.236 325.666 270.706 326.235Z"
      fill="#84888F" />
    <path opacity="0.15"
      d="M300.388 218.23L291.377 307.003L283.507 314.777L276.296 310.041L292.037 224.764C293.658 217.75 300.388 217.192 300.388 218.23Z"
      fill="black" />
    <path
      d="M396.892 57.4382C410.777 57.8068 415.025 73.4771 414.533 92.2526C414.041 111.028 409.592 121.918 395.707 121.561C381.821 121.203 370.854 109.9 371.346 91.1245C371.838 72.3379 383.006 57.0696 396.892 57.4382Z"
      fill="#AF6F0F" />
    <path
      d="M349.758 98.0137C349.758 98.0137 395.606 70.9284 396.467 105.542L396.411 114.499L398.177 166.682C398.144 168.011 346.482 169.296 346.739 167.654L347.846 158.629L351.424 131.868C350.932 129.533 350.675 126.875 350.753 123.893C350.652 110.3 349.758 98.0137 349.758 98.0137Z"
      fill="#EDC6B9" />
    <path
      d="M346.124 100.013C354.554 100.013 361.385 93.1886 361.385 84.767C361.385 76.3454 354.554 69.521 346.124 69.521C337.695 69.521 330.864 76.3454 330.864 84.767C330.864 93.1886 337.695 100.013 346.124 100.013Z"
      fill="#AF6F0F" />
    <path
      d="M345.308 73.4761C345.308 73.4761 327.521 140.201 361.888 145.629C391.626 150.387 396.165 103.979 396.165 103.979L395.516 73.7888L345.308 73.4761Z"
      fill="#EDC6B9" />
    <path
      d="M362.376 128.261L362.367 128.26L362.357 128.259C361.289 128.165 360.111 127.46 359.2 126.692C358.748 126.311 358.374 125.925 358.124 125.61C357.998 125.452 357.909 125.318 357.856 125.216C357.85 125.204 357.844 125.194 357.84 125.183C357.849 125.18 357.858 125.176 357.868 125.172C357.986 125.127 358.158 125.072 358.38 125.007C358.823 124.878 359.446 124.719 360.194 124.54C361.687 124.184 363.661 123.754 365.644 123.347C367.627 122.94 369.616 122.555 371.138 122.287C371.899 122.153 372.541 122.049 373.006 121.986C373.239 121.955 373.423 121.934 373.555 121.925C373.557 121.925 373.56 121.925 373.562 121.925C373.553 121.963 373.541 122.009 373.524 122.061C373.452 122.286 373.314 122.599 373.106 122.97C372.691 123.71 372.011 124.656 371.07 125.551C369.191 127.338 366.287 128.91 362.376 128.261ZM357.806 125.091C357.806 125.091 357.806 125.092 357.806 125.093L357.806 125.091Z"
      fill="white" stroke="#CAA89D" stroke-width="0.5" />
    <path
      d="M387.288 64.3635C387.568 53.6522 376.835 44.6834 363.319 44.3259C349.803 43.9685 338.612 52.3678 338.332 63.079C338.053 73.7903 348.785 82.7592 362.302 83.1166C375.818 83.4628 387.009 75.0748 387.288 64.3635Z"
      fill="#AF6F0F" />
    <path
      d="M394.745 57.7065C403.208 57.9299 409.849 66.7535 409.569 77.4312C409.29 88.109 402.135 98.8873 393.672 98.6639C385.209 98.4405 378.624 87.3049 378.915 76.6271C379.183 65.9493 386.271 57.4831 394.745 57.7065Z"
      fill="#AF6F0F" />
    <path opacity="0.15"
      d="M396.836 116.7C396.836 116.7 393.951 116.845 392.442 115.594L397.104 123.234L396.836 116.7Z"
      fill="black" />
    <path
      d="M393.068 98.5398C393.068 98.5398 398.021 92.5308 404.572 95.58C412.007 99.0871 410.005 116.053 397.272 116.712C390.62 117.092 392.051 113.261 393.292 108.101C393.582 101.913 393.068 98.5398 393.068 98.5398Z"
      fill="#EDC6B9" />
    <path opacity="0.3"
      d="M404.796 100.003C403.488 99.0871 402.28 98.7185 401.174 98.9083C400.067 99.0982 399.049 99.8466 398.233 101.153C397.428 102.46 396.936 103.99 396.892 105.755L396.746 107.185C396.735 107.632 397.059 107.967 397.495 107.978C397.931 107.989 398.278 107.665 398.289 107.229L398.434 105.8C398.446 105.353 398.725 103.153 399.53 101.958C400.111 101.086 400.782 100.55 401.453 100.349C402.124 100.26 402.996 100.506 403.868 101.075C404.192 101.31 404.751 101.209 404.975 100.885C405.209 100.796 405.12 100.349 404.796 100.003Z"
      fill="black" />
    <path
      d="M346.205 80.2286C347.513 81.2561 350.386 82.6746 350.386 82.6746C350.699 82.7975 351.191 82.7639 351.347 82.3507C351.515 81.9374 351.437 81.5465 351.023 81.3901C351.023 81.3901 347.065 78.9106 346.697 78.6425C346.003 78.0059 344.874 77.1458 343.667 75.6827C343.443 75.3588 342.996 75.2917 342.661 75.5151C342.325 75.7385 342.269 76.1965 342.493 76.5204C343.633 78.1511 345.769 79.8823 346.205 80.2286Z"
      fill="#EDC6B9" />
    <path opacity="0.15"
      d="M349.065 150.187L350.306 139.912C353.906 143.553 359.931 146.446 369.457 145.708C369.457 145.708 375.919 145.407 382.883 141.889C383.387 141.587 383.688 141.565 383.99 141.822C384.214 142.145 384.102 142.447 383.823 142.693C382.436 143.81 377.238 146.233 369.132 147.194C357.718 154.108 349.065 150.187 349.065 150.187Z"
      fill="black" />
    <path
      d="M346.695 166.672C346.907 158.653 358.713 152.465 373.068 152.845C387.422 153.224 395.539 159.111 398.166 166.683C400.581 173.631 386.662 182.242 372.307 181.862C357.953 181.494 346.482 174.692 346.695 166.672Z"
      fill="#EDC6B9" />
    <path
      d="M326.638 304.789L312.809 306.253L284.077 303.695C281.047 303.974 279.717 304.544 277.436 306.532L259.705 322.359C258.565 323.397 258.475 325.106 259.426 326.245C260.376 327.385 262.086 327.664 263.316 326.715L280.097 314.395L269.185 327.284C267.956 328.703 268.526 330.981 270.326 331.64C271.366 332.02 272.416 331.73 273.165 331.071L287.766 316.763L276.665 327.664C275.334 328.993 275.815 331.171 277.514 331.83C278.364 332.21 279.314 332.02 279.985 331.551L295.536 320.181L285.005 327.954C283.775 328.803 283.775 330.702 285.005 331.551C285.664 332.02 286.525 332.12 287.185 331.83L301.316 325.955C302.646 325.385 304.256 325.385 305.587 326.044L310.998 328.703C315.358 330.881 320.288 332.02 325.129 332.02H333.95C346.572 332.02 326.638 304.789 326.638 304.789Z"
      fill="#EDC6B9" />
    <path opacity="0.15"
      d="M409.927 293.744L414.667 293.364C416.087 293.275 416.848 291.756 416.277 290.527L411.246 280.386L409.927 293.744Z"
      fill="black" />
    <g opacity="0.15">
      <path opacity="0.15"
        d="M328.46 305.584L409.927 293.644L415.238 242.099L466.072 244.656L455.731 310.51C453.741 322.919 443.12 332.022 430.599 332.022H337.941L328.46 305.584Z"
        fill="black" />
    </g>
    <path
      d="M317.37 305.583L410.978 297.385L415.361 240.646L466.072 243.985L456.782 313.268C454.792 325.677 444.171 334.78 431.649 334.78L326.571 332.11L317.37 305.583Z"
      fill="#898BFE" />
    <path
      d="M405.835 329.05C405.623 329.05 405.422 328.971 405.254 328.815L400.056 323.945C399.709 323.621 399.698 323.085 400.022 322.739C400.346 322.393 400.883 322.382 401.229 322.706L406.428 327.575C406.775 327.899 406.786 328.435 406.462 328.782C406.294 328.96 406.07 329.05 405.835 329.05Z"
      fill="white" />
    <path
      d="M400.804 329.216C400.592 329.216 400.391 329.138 400.223 328.982C399.877 328.658 399.865 328.122 400.19 327.775L405.064 322.582C405.388 322.236 405.925 322.224 406.271 322.548C406.618 322.872 406.629 323.408 406.305 323.755L401.431 328.948C401.263 329.127 401.028 329.216 400.804 329.216Z"
      fill="white" />
    <path
      d="M429.894 253.042C429.671 253.042 429.458 252.953 429.291 252.797L419.184 242.711C418.972 242.499 418.882 242.186 418.961 241.884C419.039 241.594 419.273 241.359 419.564 241.281L433.36 237.573C433.651 237.495 433.964 237.573 434.187 237.796C434.4 238.009 434.489 238.321 434.411 238.623L430.721 252.417C430.643 252.707 430.409 252.942 430.118 253.02C430.04 253.042 429.961 253.042 429.894 253.042ZM421.42 242.543L429.447 250.552L430.912 245.079L432.376 239.606L421.42 242.543Z"
      fill="white" />
    <path
      d="M429.235 303.796C428.765 303.796 428.385 303.416 428.385 302.947C428.385 300.848 429.961 299.999 431.113 299.384C432.141 298.826 432.566 298.547 432.566 298.01C432.566 297.541 432.946 297.162 433.416 297.162C433.885 297.162 434.266 297.541 434.266 298.01C434.266 299.619 432.969 300.323 431.918 300.881C430.789 301.495 430.084 301.92 430.084 302.947C430.084 303.416 429.704 303.796 429.235 303.796Z"
      fill="white" />
    <path
      d="M429.235 293.901C428.765 293.901 428.385 293.521 428.385 293.052C428.385 290.952 429.961 290.103 431.113 289.489C432.141 288.93 432.566 288.651 432.566 288.115C432.566 287.646 432.946 287.266 433.416 287.266C433.885 287.266 434.266 287.646 434.266 288.115C434.266 289.723 432.969 290.427 431.918 290.985C430.744 291.611 430.084 292.024 430.084 293.052C430.084 293.521 429.704 293.901 429.235 293.901Z"
      fill="white" />
    <path
      d="M433.405 298.848C432.935 298.848 432.555 298.469 432.555 298C432.555 297.452 432.13 297.173 431.102 296.626C429.95 296 428.374 295.151 428.374 293.063C428.374 292.594 428.754 292.214 429.223 292.214C429.693 292.214 430.073 292.594 430.073 293.063C430.073 294.09 430.766 294.526 431.907 295.129C432.946 295.688 434.254 296.391 434.254 298C434.254 298.469 433.874 298.848 433.405 298.848Z"
      fill="white" />
    <path
      d="M433.405 288.964C432.935 288.964 432.555 288.584 432.555 288.115C432.555 287.567 432.13 287.288 431.102 286.741C429.95 286.127 428.374 285.267 428.374 283.178C428.374 282.709 428.754 282.329 429.223 282.329C429.693 282.329 430.073 282.709 430.073 283.178C430.073 284.206 430.766 284.641 431.907 285.244C432.946 285.803 434.254 286.506 434.254 288.115C434.254 288.573 433.874 288.964 433.405 288.964Z"
      fill="white" />
    <path
      d="M347.544 316.53C347.332 316.53 347.108 316.452 346.941 316.285C346.605 315.95 346.605 315.414 346.941 315.078L355.582 306.445C355.918 306.11 356.454 306.11 356.79 306.445C357.125 306.78 357.125 307.316 356.79 307.651L348.148 316.285C347.98 316.452 347.757 316.53 347.544 316.53Z"
      fill="white" />
    <path
      d="M437.754 257.075L427.222 246.576L441.588 242.722L437.754 257.075ZM427.882 246.743L437.575 256.416L441.107 243.191L427.882 246.743Z"
      fill="white" />
    <path
      d="M437.172 307.493H436.837C436.837 305.796 438.089 305.126 439.207 304.522C440.18 303.997 441.018 303.551 441.018 302.545H441.353C441.353 303.752 440.347 304.299 439.364 304.824C438.29 305.405 437.172 305.997 437.172 307.493Z"
      fill="white" />
    <path
      d="M437.172 297.598H436.837C436.837 295.901 438.089 295.23 439.207 294.627C440.18 294.102 441.018 293.656 441.018 292.65H441.353C441.353 293.857 440.347 294.404 439.364 294.929C438.29 295.51 437.172 296.113 437.172 297.598Z"
      fill="white" />
    <path
      d="M441.342 302.546H441.007C441.007 301.54 440.168 301.094 439.196 300.569C438.089 299.966 436.826 299.295 436.826 297.598H437.161C437.161 299.083 438.268 299.686 439.352 300.267C440.336 300.792 441.342 301.339 441.342 302.546Z"
      fill="white" />
    <path
      d="M441.342 292.651H441.007C441.007 291.645 440.168 291.199 439.196 290.674C438.089 290.071 436.826 289.4 436.826 287.703H437.161C437.161 289.188 438.268 289.791 439.352 290.372C440.336 290.908 441.342 291.444 441.342 292.651Z"
      fill="white" />
    <path d="M363.822 311.481L355.18 320.115L355.415 320.349L364.057 311.716L363.822 311.481Z"
      fill="white" />
    <path
      d="M454.914 269.284C453.92 269.284 452.947 268.793 452.388 267.888C451.516 266.492 451.93 264.649 453.327 263.778C454.725 262.907 456.569 263.32 457.441 264.716C457.866 265.386 458 266.19 457.821 266.961C457.642 267.743 457.173 268.402 456.502 268.826C456.01 269.139 455.462 269.284 454.914 269.284ZM454.903 265.018C454.669 265.018 454.434 265.085 454.221 265.219C453.629 265.599 453.439 266.392 453.819 266.984C454.199 267.587 454.993 267.765 455.585 267.386C455.876 267.207 456.077 266.917 456.155 266.581C456.234 266.246 456.178 265.9 455.988 265.61C455.753 265.23 455.328 265.018 454.903 265.018Z"
      fill="white" />
    <path opacity="0.6" d="M326.56 304.443L317.37 305.604L326.47 332.02H337.851L326.56 304.443Z"
      fill="#373866" />
    <path opacity="0.15"
      d="M325.598 330.915L327.119 335.562L431.158 334.914C443.679 334.914 454.389 325.822 456.29 313.402L470.443 215.482C473.003 198.426 462.103 182.231 445.311 178.243L436.49 176.155C449.962 182.119 458.112 196.427 455.842 211.405L442.829 302.49C440.839 314.899 430.219 324.002 417.697 324.002L325.598 330.915Z"
      fill="black" />
    <path opacity="0.15"
      d="M315.749 327.376C317.929 327.376 319.64 325.387 319.45 323.21L317.359 305.584L326.56 332.022H325.229C320.299 332.022 315.458 330.883 311.098 328.705L304.648 325.678C306.179 325.857 310.159 327.376 315.749 327.376Z"
      fill="black" />
    <path
      d="M339.182 331.263H245.674C244.914 331.263 244.255 331.922 244.255 332.681V335.049C244.255 335.809 244.914 336.468 245.674 336.468H339.182C339.942 336.468 340.602 335.809 340.602 335.049V332.681C340.602 331.922 340.031 331.263 339.182 331.263Z"
      fill="#21252B" />
    <path opacity="0.6"
      d="M339.182 331.263H245.674C244.914 331.263 244.255 331.922 244.255 332.681V335.049C244.255 335.809 244.914 336.468 245.674 336.468H339.182C339.942 336.468 340.602 335.809 340.602 335.049V332.681C340.602 331.922 340.031 331.263 339.182 331.263Z"
      fill="#40383B" />
    <path
      d="M276.117 331.263H113.094C112.334 331.263 111.674 331.922 111.674 332.681V335.049C111.674 335.809 112.334 336.468 113.094 336.468H276.117C276.877 336.468 277.537 335.809 277.537 335.049V332.681C277.436 331.922 276.866 331.263 276.117 331.263Z"
      fill="#544F51" />
    <g opacity="0.6">
      <path opacity="0.6"
        d="M115.173 332.212H281.137C281.416 332.212 281.606 332.022 281.606 331.743C281.606 331.463 281.416 331.273 281.137 331.273H115.173C114.894 331.273 114.704 331.463 114.704 331.743C114.704 332.022 114.983 332.212 115.173 332.212Z"
        fill="black" />
    </g>
    <path
      d="M276.486 331.263H251.924C250.023 331.263 248.413 329.934 248.033 328.046L227.451 219.939C226.982 217.471 228.871 215.293 231.342 215.293H255.904C257.804 215.293 259.414 216.622 259.794 218.51L280.376 326.616C280.756 329.085 278.956 331.263 276.486 331.263Z"
      fill="#21252B" />
    <path opacity="0.6"
      d="M276.486 331.263H251.924C250.023 331.263 248.413 329.934 248.033 328.046L227.451 219.939C226.982 217.471 228.871 215.293 231.342 215.293H255.904C257.804 215.293 259.414 216.622 259.794 218.51L280.376 326.616C280.756 329.085 278.956 331.263 276.486 331.263Z"
      fill="#766B6B" />
    <path
      d="M272.986 331.263H115.274C113.373 331.263 111.763 329.934 111.383 328.046L90.8015 219.939C90.3319 217.471 92.2213 215.293 94.692 215.293H252.315C254.216 215.293 255.826 216.622 256.206 218.51L276.788 326.616C277.246 329.085 275.446 331.263 272.986 331.263Z"
      fill="#989BA1" />
    <path
      d="M181.926 263.232C181.953 258.346 186.341 256.064 188.532 255.533C188.853 259.95 184.262 262.506 181.926 263.232Z"
      fill="#F8F8F8" fill-opacity="0.5" />
    <path
      d="M182.262 288.978C188.16 288.546 192.655 284.094 192.288 279.046C192.122 276.759 191.148 275.68 190.174 274.602C189.2 273.523 188.226 272.445 188.059 270.158C187.9 267.962 186.415 266.016 184.108 265.081C183.387 264.781 181.945 264.657 181.17 264.591L181.055 263.005C180.986 262.06 180.594 260.988 179.666 260.305C178.739 259.622 178.105 259.389 176.537 259.503L176.649 261.041C177.771 260.959 178.475 261.208 178.722 261.405C179.4 261.943 179.444 262.556 179.485 263.12L179.6 264.706C178.843 264.884 177.668 265.2 176.98 265.603C174.833 266.864 173.645 269.005 173.805 271.201C173.971 273.488 173.163 274.697 172.355 275.906C171.547 277.114 170.74 278.323 170.906 280.611C171.273 285.658 176.364 289.409 182.262 288.978Z"
      fill="#F8F8F8" fill-opacity="0.5" />
    <path
      d="M398.466 166.792L398.265 166.008L398.02 166.938L398.262 167.001M398.466 166.792L398.439 166.956M398.466 166.792L398.955 166.905L403.411 167.935L403.586 167.975L403.603 168.154C403.952 171.769 402.495 174.199 400.949 175.718C400.179 176.476 399.388 177.007 398.789 177.348C398.49 177.519 398.238 177.643 398.059 177.725C397.97 177.766 397.9 177.796 397.85 177.817C397.826 177.827 397.807 177.834 397.794 177.84L397.788 177.842M398.466 166.792L397.788 177.842M398.262 167.001C398.148 166.971 398.094 166.998 398.085 167.047C398.02 167.063 398.02 167.063 398.02 167.063L398.02 167.064L398.022 167.071L398.028 167.099C398.034 167.124 398.042 167.163 398.052 167.213C398.071 167.314 398.096 167.461 398.116 167.644C398.157 168.011 398.18 168.518 398.11 169.077C397.972 170.193 397.471 171.505 396.017 172.366C395.836 172.467 395.629 172.585 395.395 172.718C391.151 175.136 378.278 182.471 360.519 177.385L360.519 177.385L360.513 177.383L360.513 177.383L360.513 177.383L360.512 177.383L360.509 177.382L360.497 177.379L360.448 177.365C360.404 177.353 360.338 177.335 360.252 177.31C360.08 177.261 359.827 177.185 359.506 177.082C358.862 176.877 357.945 176.561 356.851 176.123C354.663 175.247 351.774 173.882 348.959 171.926C347.754 171.039 346.846 169.816 346.659 168.357V168.357V168.356V168.355V168.353V168.352V168.351V168.35V168.349V168.348V168.347V168.346V168.345V168.344V168.343V168.342V168.341V168.34V168.339V168.338V168.337V168.336V168.335V168.334V168.333V168.332V168.331V168.33V168.329V168.328V168.327V168.326V168.325V168.324V168.323V168.322V168.321V168.32V168.319V168.318V168.317V168.316V168.315V168.315V168.314V168.313V168.312V168.311V168.31V168.309V168.308V168.307V168.306V168.305V168.304V168.303V168.302V168.301V168.3V168.299V168.298V168.297V168.297V168.296V168.295V168.294V168.293V168.292V168.291V168.29V168.289V168.288V168.287V168.286V168.285V168.285V168.284V168.283V168.282V168.281V168.28V168.279V168.278V168.277V168.276V168.276V168.275V168.274V168.273V168.272V168.271V168.27V168.269V168.268V168.267V168.267V168.266V168.265V168.264V168.263V168.262V168.261V168.26V168.26V168.259V168.258V168.257V168.256V168.255V168.254V168.253V168.253V168.252V168.251V168.25V168.249V168.248V168.247V168.247V168.246V168.245V168.244V168.243V168.242V168.241V168.241V168.24V168.239V168.238V168.237V168.236V168.236V168.235V168.234V168.233V168.232V168.231V168.23V168.23V168.229V168.228V168.227V168.226V168.225V168.225V168.224V168.223V168.222V168.221V168.22V168.22V168.219V168.218V168.217V168.216V168.216V168.215V168.214V168.213V168.212V168.211V168.211V168.21V168.209V168.208V168.207V168.206V168.206V168.205V168.204V168.203V168.202V168.202V168.201V168.2V168.199V168.198V168.198V168.197V168.196V168.195V168.194V168.194V168.193V168.192V168.191V168.19V168.189V168.189V168.188V168.187V168.186V168.185V168.185V168.184V168.183V168.182V168.181V168.181V168.18V168.179V168.178V168.177V168.177V168.176V168.175V168.174V168.174V168.173V168.172V168.171V168.17V168.17V168.169V168.168V168.167V168.166V168.166V168.165V168.164V168.163V168.162V168.162V168.161V168.16V168.159V168.158V168.158V168.157V168.156V168.155V168.154V168.154V168.153V168.152V168.151V168.151V168.15V168.149V168.148V168.147V168.147V168.146V168.145V168.144V168.143V168.143V168.142V168.141V168.14V168.139V168.139V168.138V168.137V168.136V168.135V168.135V168.134V168.133V168.132V168.132V168.131V168.13V168.129V168.128V168.128V168.127V168.126V168.125V168.124V168.124V168.123V168.122V168.121V168.12V168.12V168.119V168.118V168.117V168.116V168.116V168.115V168.114V168.113V168.112V168.112V168.111V168.11V168.109V168.108V168.108V168.107V168.106V168.105V168.104V168.104V168.103V168.102V168.101V168.1V168.1V168.099V168.098V168.097V168.096V168.096V168.095V168.094V168.093V168.092V168.092V168.091V168.09V168.089V168.088V168.087V168.087V168.086V168.085V168.084V168.083V168.083V168.082V168.081V168.08V168.079V168.078V168.078V168.077V168.076V168.075V168.074V168.074V168.073V168.072V168.071V168.07V168.069V168.069V168.068V168.067V168.066V168.065V168.064V168.064V168.063V168.062V168.061V168.06V168.059V168.059V168.058V168.057V168.056V168.055V168.054V168.053V168.053V168.052V168.051V168.05V168.049V168.048V168.048V168.047V168.046V168.045V168.044V168.043V168.042V168.042V168.041V168.04V168.039V168.038V168.037V168.036V168.035V168.035V168.034V168.033V168.032V168.031V168.03V168.029V168.028V168.028V168.027V168.026V168.025V168.024V168.023V168.022V168.021V168.02V168.02V168.019V168.018V168.017V168.016V168.015V168.014V168.013V168.012V168.012V168.011V168.01V168.009V168.008V168.007V168.006V168.005V168.004V168.003V168.002V168.001V168.001V168V167.999V167.998V167.997V167.996V167.995V167.994V167.993V167.992V167.991V167.99V167.989V167.988V167.987V167.987V167.986V167.985V167.984V167.983V167.982V167.981V167.98V167.979V167.978V167.977V167.976V167.975V167.974V167.973V167.972V167.971V167.97V167.969V167.968V167.967V167.966V167.965V167.964V167.963V167.962V167.961V167.96V167.959V167.958V167.957V167.956V167.955V167.954V167.953V167.952V167.951V167.95V167.949V167.948V167.947V167.946V167.945V167.944V167.943V167.942V167.941V167.94V167.939V167.938V167.937V167.936V167.935V167.934V167.933V167.932V167.931V167.93V167.929V167.928V167.927V167.925V167.924V167.923V167.922V167.921V167.92V167.919V166.634V166.483L346.526 166.413L346.409 166.634C346.526 166.413 346.443 166.387 346.356 166.39L346.356 166.39L346.355 166.39L346.355 166.39L346.355 166.39L346.353 166.391L346.344 166.393L346.272 166.409L345.693 166.539L341.058 167.578L340.863 167.622V167.822C340.863 169.424 341.354 172.434 344.116 175.053C344.116 175.053 344.117 175.053 344.117 175.053L344.289 174.872M398.262 167.001L398.439 166.956C398.439 166.956 398.439 166.956 398.439 166.956M398.262 167.001C398.348 166.979 398.403 166.965 398.439 166.956M344.289 174.872C345.831 176.34 368.627 193.096 397.684 177.614M344.289 174.872C341.589 172.313 341.113 169.377 341.113 167.822M344.289 174.872L341.113 167.822M397.684 177.614C397.772 177.848 397.772 177.848 397.772 177.848L397.772 177.848L397.774 177.847L397.778 177.846L397.788 177.842M397.684 177.614L397.801 177.835C397.797 177.837 397.792 177.84 397.788 177.842M397.684 177.614C397.684 177.614 404.035 175.228 403.354 168.178C400.175 167.443 398.981 167.167 398.532 167.064C398.526 167.034 398.52 167.008 398.516 166.989C398.513 166.974 398.51 166.962 398.508 166.953L398.505 166.944L398.505 166.941L398.504 166.94L398.504 166.939C398.504 166.939 398.504 166.939 398.439 166.956M341.113 167.822L346.159 166.69L341.113 167.822Z"
      fill="white" stroke="#7576D8" stroke-width="0.5" />
    <path
      d="M345.308 111.855C346.941 111.843 348.26 110.503 348.237 108.861C348.226 107.23 346.885 105.913 345.241 105.935C343.609 105.957 342.301 107.286 342.312 108.928C342.334 110.559 343.676 111.877 345.308 111.855Z"
      fill="#21252B" />
    <path
      d="M343.922 109.933C344.291 109.933 344.604 109.62 344.593 109.24C344.593 108.86 344.28 108.559 343.911 108.57C343.531 108.57 343.229 108.883 343.229 109.263C343.24 109.631 343.542 109.933 343.922 109.933Z"
      fill="white" />
    <path
      d="M368.137 113.327C369.769 113.316 371.089 111.975 371.066 110.333C371.055 108.703 369.714 107.385 368.07 107.407C366.438 107.429 365.13 108.758 365.141 110.4C365.164 112.031 366.494 113.338 368.137 113.327Z"
      fill="#21252B" />
    <path
      d="M366.751 111.294C367.12 111.294 367.422 110.981 367.422 110.602C367.422 110.222 367.109 109.92 366.729 109.931C366.36 109.931 366.058 110.244 366.058 110.624C366.058 110.993 366.371 111.294 366.751 111.294Z"
      fill="white" />
    <g opacity="0.3">
      <path opacity="0.3"
        d="M358.903 117.672L361.284 117.348C361.742 117.326 362.067 116.856 362.044 116.399C362.022 115.941 361.552 115.617 361.094 115.639L358.713 115.963C357.695 116.119 356.857 115.36 356.7 114.332C356.544 113.316 357.304 112.478 358.333 112.322C358.791 112.299 359.115 111.83 359.093 111.372C359.071 110.914 358.601 110.591 358.143 110.613C356.209 110.803 354.8 112.579 355.113 114.5C355.202 116.577 356.969 117.873 358.903 117.672Z"
        fill="black" />
    </g>
    <path
      d="M362.915 99.1487L362.292 96.6416C365.615 95.8083 374.875 95.1414 380.357 99.1414C378.488 98.5164 373.879 96.1487 362.915 99.1487Z"
      fill="#8F5909" />
    <path
      d="M353.142 98.5093L353.571 96.5128C351.28 95.8492 344.893 95.3182 341.113 98.5035C342.402 98.0058 345.581 96.1203 353.142 98.5093Z"
      fill="#8F5909" />
    <path
      d="M335.615 101.511L335.537 104.605C335.381 110.569 340.121 115.55 346.091 115.707C352.061 115.863 357.047 111.127 357.203 105.163L357.282 102.069C357.304 101.187 357.103 100.293 356.566 99.6232L360.77 99.7349C360.2 100.383 359.842 101.254 359.82 102.136L359.741 105.23C359.585 111.194 364.325 116.176 370.295 116.332C376.265 116.489 381.251 111.753 381.408 105.789L381.486 102.695C381.542 100.483 379.82 98.6738 377.606 98.618L364.012 98.2606H363.9L353.402 97.9813L351.748 97.9366L339.696 97.6239C337.494 97.5792 335.671 99.2993 335.615 101.511ZM363.755 99.9248H363.867L377.461 100.282C378.792 100.316 379.865 101.455 379.831 102.773L379.753 105.867C379.619 110.949 375.315 114.925 370.228 114.791C365.141 114.657 361.161 110.357 361.295 105.275L361.374 102.181C361.407 100.863 362.536 99.8912 363.755 99.9248ZM337.046 101.656C337.08 100.327 338.22 99.2546 339.54 99.2881L351.591 99.6008L353.246 99.6455C354.576 99.679 355.65 100.818 355.616 102.136L355.538 105.23C355.404 110.312 351.099 114.288 346.013 114.154C340.926 114.02 336.946 109.72 337.08 104.638L337.046 101.656Z"
      fill="#62656A" />
  </g>
  <mask id="path-93-outside-1_142_4325" maskUnits="userSpaceOnUse" x="197.955" y="-1.06343"
    width="95.8239" height="96.6966" fill="black">
    <rect fill="white" x="197.955" y="-1.06343" width="95.8239" height="96.6966" />
    <path fill-rule="evenodd" clip-rule="evenodd"
      d="M242.762 89.198C234.453 88.5635 226.518 85.471 219.96 80.3116C211.175 73.3868 205.487 63.2473 204.145 52.119C202.804 40.9908 205.918 29.7831 212.805 20.9566C217.948 14.3775 224.919 9.47606 232.838 6.87222C240.757 4.26839 249.268 4.07906 257.294 6.32819C265.32 8.57731 272.501 13.1639 277.929 19.5079C283.358 25.8519 286.789 33.6684 287.79 41.969C288.79 50.2696 287.315 58.6815 283.551 66.141C283.363 66.5133 283.17 66.8824 282.971 67.2481L289.644 78.529C289.857 78.9529 289.945 79.4289 289.899 79.9012C289.852 80.3736 289.672 80.8227 289.38 81.1963C289.088 81.5698 288.696 81.8522 288.25 82.0105C287.804 82.1687 287.322 82.1964 286.861 82.0901L274.346 78.2862C272.008 80.4245 269.426 82.3027 266.642 83.8767C259.382 87.9808 251.071 89.8326 242.762 89.198ZM209.521 59.0278C211.883 66.2589 216.33 72.625 222.298 77.3208C230.304 83.6082 240.47 86.4515 250.564 85.2266C260.658 84.0018 269.855 78.8088 276.137 70.7876C280.817 64.7996 283.622 57.5536 284.198 49.9659C284.774 42.3783 283.094 34.7898 279.371 28.1599C275.649 21.5301 270.05 16.1568 263.283 12.7194C256.517 9.28207 248.887 7.93506 241.357 8.84874C233.828 9.76243 226.737 12.8958 220.983 17.8525C215.228 22.8093 211.068 29.3669 209.028 36.696C206.988 44.0251 207.159 51.7966 209.521 59.0278Z" />
  </mask>
  <path fill-rule="evenodd" clip-rule="evenodd"
    d="M242.762 89.198C234.453 88.5635 226.518 85.471 219.96 80.3116C211.175 73.3868 205.487 63.2473 204.145 52.119C202.804 40.9908 205.918 29.7831 212.805 20.9566C217.948 14.3775 224.919 9.47606 232.838 6.87222C240.757 4.26839 249.268 4.07906 257.294 6.32819C265.32 8.57731 272.501 13.1639 277.929 19.5079C283.358 25.8519 286.789 33.6684 287.79 41.969C288.79 50.2696 287.315 58.6815 283.551 66.141C283.363 66.5133 283.17 66.8824 282.971 67.2481L289.644 78.529C289.857 78.9529 289.945 79.4289 289.899 79.9012C289.852 80.3736 289.672 80.8227 289.38 81.1963C289.088 81.5698 288.696 81.8522 288.25 82.0105C287.804 82.1687 287.322 82.1964 286.861 82.0901L274.346 78.2862C272.008 80.4245 269.426 82.3027 266.642 83.8767C259.382 87.9808 251.071 89.8326 242.762 89.198ZM209.521 59.0278C211.883 66.2589 216.33 72.625 222.298 77.3208C230.304 83.6082 240.47 86.4515 250.564 85.2266C260.658 84.0018 269.855 78.8088 276.137 70.7876C280.817 64.7996 283.622 57.5536 284.198 49.9659C284.774 42.3783 283.094 34.7898 279.371 28.1599C275.649 21.5301 270.05 16.1568 263.283 12.7194C256.517 9.28207 248.887 7.93506 241.357 8.84874C233.828 9.76243 226.737 12.8958 220.983 17.8525C215.228 22.8093 211.068 29.3669 209.028 36.696C206.988 44.0251 207.159 51.7966 209.521 59.0278Z"
    fill="#B4ADB0" />
  <path
    d="M219.96 80.3116L219.65 80.7043L219.651 80.7045L219.96 80.3116ZM242.762 89.198L242.8 88.6995L242.762 89.198ZM204.145 52.119L203.649 52.1789L204.145 52.119ZM212.805 20.9566L212.411 20.6487L212.411 20.649L212.805 20.9566ZM232.838 6.87222L232.994 7.34721L232.838 6.87222ZM257.294 6.32819L257.159 6.80964L257.294 6.32819ZM277.929 19.5079L277.55 19.8329L277.55 19.8329L277.929 19.5079ZM287.79 41.969L288.286 41.9092L287.79 41.969ZM283.551 66.141L283.104 65.9158L283.551 66.141ZM282.971 67.2481L282.532 67.0098L282.397 67.2588L282.541 67.5027L282.971 67.2481ZM289.644 78.529L290.091 78.3047L290.084 78.2893L290.075 78.2744L289.644 78.529ZM289.899 79.9012L289.401 79.8518L289.401 79.8519L289.899 79.9012ZM289.38 81.1963L289.774 81.5042L289.774 81.5042L289.38 81.1963ZM286.861 82.0901L286.716 82.5684L286.732 82.5734L286.749 82.5773L286.861 82.0901ZM274.346 78.2862L274.492 77.8078L274.219 77.7249L274.009 77.9173L274.346 78.2862ZM266.642 83.8767L266.396 83.4414L266.642 83.8767ZM222.298 77.3208L221.988 77.7138L221.989 77.7141L222.298 77.3208ZM209.521 59.0278L209.997 58.8725L209.521 59.0278ZM250.564 85.2266L250.504 84.7303L250.564 85.2266ZM276.137 70.7876L276.531 71.0958L276.531 71.0955L276.137 70.7876ZM284.198 49.9659L284.697 50.0038L284.697 50.0038L284.198 49.9659ZM263.283 12.7194L263.51 12.2737L263.283 12.7194ZM241.357 8.84874L241.417 9.3451L241.357 8.84874ZM220.983 17.8525L221.309 18.2314L220.983 17.8525ZM209.028 36.696L209.509 36.8301L209.028 36.696ZM219.651 80.7045C226.286 85.9251 234.316 89.0544 242.724 89.6966L242.8 88.6995C234.59 88.0725 226.749 85.0168 220.269 79.9186L219.651 80.7045ZM203.649 52.1789C205.006 63.4382 210.761 73.6975 219.65 80.7043L220.269 79.9189C211.588 73.0762 205.968 63.0565 204.642 52.0592L203.649 52.1789ZM212.411 20.649C205.443 29.5799 202.292 40.9196 203.649 52.1789L204.642 52.0592C203.316 41.0619 206.394 29.9864 213.199 21.2642L212.411 20.649ZM232.682 6.39724C224.669 9.03206 217.615 13.9917 212.411 20.6487L213.199 21.2645C218.281 14.7632 225.17 9.92006 232.994 7.34721L232.682 6.39724ZM257.429 5.84673C249.307 3.57084 240.695 3.76242 232.682 6.39724L232.994 7.34721C240.819 4.77436 249.228 4.58729 257.159 6.80964L257.429 5.84673ZM278.309 19.1828C272.817 12.7637 265.551 8.12262 257.429 5.84673L257.159 6.80964C265.09 9.03199 272.186 13.564 277.55 19.8329L278.309 19.1828ZM288.286 41.9092C287.274 33.5107 283.802 25.6019 278.309 19.1828L277.55 19.8329C282.914 26.1019 286.304 33.8261 287.293 42.0289L288.286 41.9092ZM283.997 66.3663C287.806 58.8187 289.298 50.3076 288.286 41.9092L287.293 42.0289C288.282 50.2317 286.824 58.5444 283.104 65.9158L283.997 66.3663ZM283.411 67.4865C283.612 67.1164 283.807 66.743 283.997 66.3663L283.104 65.9158C282.919 66.2837 282.728 66.6484 282.532 67.0098L283.411 67.4865ZM290.075 78.2744L283.402 66.9936L282.541 67.5027L289.214 78.7835L290.075 78.2744ZM290.396 79.9506C290.452 79.3841 290.347 78.8133 290.091 78.3047L289.198 78.7533C289.368 79.0926 289.438 79.4736 289.401 79.8518L290.396 79.9506ZM289.774 81.5042C290.124 81.0559 290.34 80.5171 290.396 79.9506L289.401 79.8519C289.363 80.2301 289.219 80.5896 288.986 80.8884L289.774 81.5042ZM288.417 82.4817C288.953 82.2916 289.423 81.9524 289.774 81.5042L288.986 80.8884C288.752 81.1871 288.439 81.4128 288.083 81.5393L288.417 82.4817ZM286.749 82.5773C287.303 82.705 287.881 82.6718 288.417 82.4817L288.083 81.5393C287.726 81.6657 287.342 81.6877 286.973 81.6028L286.749 82.5773ZM274.201 78.7646L286.716 82.5684L287.006 81.6117L274.492 77.8078L274.201 78.7646ZM266.888 84.3119C269.705 82.7192 272.318 80.8188 274.684 78.6551L274.009 77.9173C271.699 80.0302 269.147 81.8861 266.396 83.4414L266.888 84.3119ZM242.724 89.6966C251.132 90.3387 259.541 88.4648 266.888 84.3119L266.396 83.4414C259.222 87.4967 251.01 89.3265 242.8 88.6995L242.724 89.6966ZM222.607 76.9279C216.717 72.2932 212.328 66.01 209.997 58.8725L209.046 59.183C211.439 66.5079 215.943 72.9567 221.988 77.7138L222.607 76.9279ZM250.504 84.7303C240.542 85.9391 230.509 83.1331 222.606 76.9276L221.989 77.7141C230.1 84.0834 240.398 86.9639 250.624 85.723L250.504 84.7303ZM275.743 70.4793C269.543 78.3964 260.466 83.5214 250.504 84.7303L250.624 85.723C260.85 84.4821 270.167 79.2213 276.531 71.0958L275.743 70.4793ZM283.699 49.9281C283.131 57.4175 280.362 64.5695 275.743 70.4797L276.531 71.0955C281.272 65.0296 284.113 57.6897 284.697 50.0038L283.699 49.9281ZM278.935 28.4048C282.61 34.9485 284.268 42.4387 283.699 49.9281L284.697 50.0038C285.28 42.3179 283.578 34.631 279.807 27.9151L278.935 28.4048ZM263.057 13.1652C269.735 16.5577 275.261 21.861 278.935 28.4048L279.807 27.9151C276.036 21.1993 270.365 15.7559 263.51 12.2737L263.057 13.1652ZM241.417 9.3451C248.848 8.44338 256.379 9.77274 263.057 13.1652L263.51 12.2737C256.655 8.7914 248.925 7.42675 241.297 8.35239L241.417 9.3451ZM221.309 18.2314C226.989 13.3392 233.986 10.2468 241.417 9.3451L241.297 8.35239C233.669 9.27802 226.486 12.4523 220.657 17.4737L221.309 18.2314ZM209.509 36.8301C211.523 29.5959 215.63 23.1236 221.309 18.2314L220.657 17.4737C214.827 22.495 210.613 29.1378 208.546 36.5619L209.509 36.8301ZM209.997 58.8725C207.665 51.7351 207.496 44.0642 209.509 36.8301L208.546 36.5619C206.479 43.986 206.654 51.8582 209.046 59.183L209.997 58.8725Z"
    fill="black" mask="url(#path-93-outside-1_142_4325)" />
  <path
    d="M238.262 85.6892C230.636 84.1676 223.631 80.4116 218.132 74.8961C210.769 67.4949 206.633 57.4651 206.633 47.0079C206.633 36.5507 210.769 26.5208 218.133 19.1195C223.631 13.6041 230.636 9.84819 238.262 8.32658C245.888 6.80495 253.792 7.58599 260.975 10.571C268.159 13.5559 274.299 18.6108 278.619 25.0965C282.939 31.5823 285.244 39.2075 285.244 47.0079C285.244 54.8083 282.939 62.4335 278.619 68.9193C274.299 75.405 268.159 80.4599 260.975 83.4448C253.792 86.4298 245.888 87.2109 238.262 85.6892Z"
    fill="white" stroke="black" stroke-width="0.5" />
  <path
    d="M241.236 66.1355H250.835C251.026 66.1355 251.21 66.0593 251.345 65.9237C251.48 65.7881 251.556 65.6042 251.556 65.4125C251.556 65.2207 251.48 65.0368 251.345 64.9012C251.21 64.7656 251.026 64.6895 250.835 64.6895H241.236C241.045 64.6895 240.862 64.7656 240.727 64.9012C240.592 65.0368 240.516 65.2207 240.516 65.4125C240.516 65.6042 240.592 65.7881 240.727 65.9237C240.862 66.0593 241.045 66.1355 241.236 66.1355Z"
    fill="#544F51" />
  <path
    d="M240.553 68.1005C240.553 67.9087 240.629 67.7248 240.764 67.5892C240.899 67.4536 241.082 67.3774 241.273 67.3774H250.835C251.026 67.3774 251.21 67.4536 251.345 67.5892C251.48 67.7248 251.556 67.9087 251.556 68.1005C251.652 68.8823 251.581 69.6757 251.349 70.4281C251.116 71.1805 250.727 71.8747 250.207 72.4648C249.686 73.0549 249.047 73.5274 248.331 73.8511C247.616 74.1747 246.839 74.342 246.054 74.342C245.269 74.342 244.493 74.1747 243.777 73.8511C243.061 73.5274 242.422 73.0549 241.902 72.4648C241.382 71.8747 240.993 71.1805 240.76 70.4281C240.527 69.6757 240.457 68.8823 240.553 68.1005Z"
    fill="#544F51" />
  <path
    d="M231.249 46.4937C231.253 49.0798 231.927 51.6205 233.205 53.8664C234.483 56.1123 236.321 57.9862 238.539 59.3041C239.129 59.6502 239.619 60.1437 239.962 60.7367C240.306 61.3297 240.49 62.0018 240.497 62.6875C240.5 62.8588 240.568 63.0225 240.689 63.1436C240.81 63.2648 240.973 63.3339 241.144 63.3363H250.965C251.136 63.3323 251.3 63.2665 251.427 63.151C251.54 63.0229 251.606 62.8589 251.611 62.6875C251.616 62.0001 251.8 61.326 252.145 60.7323C252.49 60.1386 252.985 59.6462 253.579 59.3041C255.824 57.9759 257.678 56.0761 258.955 53.7971C260.232 51.5181 260.886 48.941 260.85 46.3269C260.764 42.5577 259.27 38.9584 256.664 36.2424C254.058 33.5263 250.53 31.8917 246.779 31.6626C244.777 31.562 242.775 31.8712 240.895 32.5714C239.016 33.2715 237.298 34.348 235.846 35.7354C234.394 37.1227 233.239 38.7919 232.45 40.6414C231.661 42.4909 231.256 44.4821 231.259 46.4937H231.249Z"
    fill="#FFC350" />
  <g opacity="0.2">
    <path
      d="M231.249 46.4937C231.253 49.0798 231.927 51.6205 233.205 53.8664C234.483 56.1123 236.321 57.9862 238.539 59.3041C239.129 59.6502 239.619 60.1437 239.962 60.7367C240.306 61.3297 240.49 62.0018 240.497 62.6875C240.5 62.8588 240.568 63.0225 240.689 63.1436C240.81 63.2648 240.973 63.3339 241.144 63.3363H250.965C251.136 63.3323 251.3 63.2665 251.427 63.151C251.54 63.0229 251.606 62.8589 251.611 62.6875C251.616 62.0001 251.8 61.326 252.145 60.7323C252.49 60.1386 252.985 59.6462 253.579 59.3041C255.824 57.9759 257.678 56.0761 258.955 53.7971C260.232 51.5181 260.886 48.941 260.85 46.3269C260.764 42.5577 259.27 38.9584 256.664 36.2424C254.058 33.5263 250.53 31.8917 246.779 31.6626C244.777 31.562 242.775 31.8712 240.895 32.5714C239.016 33.2715 237.298 34.348 235.846 35.7354C234.394 37.1227 233.239 38.7919 232.45 40.6414C231.661 42.4909 231.256 44.4821 231.259 46.4937H231.249Z"
      fill="white" />
  </g>
  <path
    d="M238.382 50.9617C238.974 51.3199 239.659 51.4941 240.349 51.4623C240.733 51.4597 241.117 51.4256 241.495 51.3603H241.68L241.772 51.5272C242.105 52.1431 242.38 52.7885 242.594 53.4552C243.331 56.2052 243.612 59.0582 243.426 61.8997C243.426 62.4373 243.426 62.9101 243.426 63.3828H244.183C244.183 62.9008 244.183 62.4559 244.183 61.9368C244.358 59.0011 244.046 56.0567 243.26 53.2235C243.061 52.6036 242.817 51.9994 242.53 51.4159L242.391 51.1564L242.678 51.0452C243.446 50.7643 244.167 50.3639 244.812 49.8587C245.172 49.5774 245.508 49.2674 245.819 48.9317L246.013 48.7371L246.197 48.9317C246.51 49.2648 246.847 49.5746 247.204 49.8587C247.871 50.335 248.607 50.7069 249.385 50.9617L249.671 51.073L249.551 51.3325C249.263 51.916 249.019 52.5202 248.821 53.1401C248.054 55.9732 247.76 58.9145 247.953 61.8441C247.953 62.3446 247.953 62.8174 247.953 63.2994H248.71C248.71 62.8266 248.71 62.3724 248.71 61.8626C248.521 59.0052 248.805 56.1359 249.551 53.3718C249.758 52.7039 250.031 52.0581 250.364 51.4437L250.456 51.2769H250.641C251.02 51.3418 251.403 51.3759 251.787 51.3789C252.46 51.4315 253.134 51.2866 253.727 50.9617C253.958 50.8281 254.135 50.6184 254.23 50.3684C254.324 50.1184 254.329 49.8433 254.244 49.5899C254.151 49.2878 253.961 49.0251 253.704 48.8425C253.447 48.6598 253.136 48.5674 252.822 48.5795C252.28 48.6414 251.761 48.8285 251.304 49.1261C250.847 49.4237 250.465 49.8236 250.189 50.2943L250.078 50.4519L249.893 50.387C249.097 50.1169 248.355 49.7056 247.703 49.1727C247.337 48.8958 246.997 48.5855 246.687 48.2458L246.539 48.0975L246.659 47.9214C247.079 47.4113 247.379 46.8138 247.539 46.1723C247.699 45.5308 247.714 44.8616 247.583 44.2136C247.468 43.8917 247.257 43.6134 246.978 43.4166C246.7 43.2199 246.367 43.1143 246.027 43.1143C245.686 43.1143 245.353 43.2199 245.075 43.4166C244.796 43.6134 244.585 43.8917 244.47 44.2136C244.341 44.8617 244.357 45.5304 244.517 46.1716C244.676 46.8127 244.976 47.4104 245.394 47.9214L245.523 48.0975L245.366 48.2458C245.06 48.5853 244.722 48.8956 244.359 49.1727C243.705 49.6864 242.968 50.0816 242.179 50.3407L241.994 50.4056L241.874 50.248C241.597 49.7772 241.215 49.3773 240.758 49.0798C240.301 48.7822 239.782 48.5951 239.241 48.5331C238.926 48.521 238.616 48.6134 238.358 48.7961C238.101 48.9788 237.911 49.2415 237.818 49.5435C237.732 49.8087 237.742 50.0957 237.845 50.3546C237.948 50.6136 238.138 50.8283 238.382 50.9617ZM250.835 50.6558L251.214 50.248C251.607 49.738 252.185 49.4047 252.822 49.321C252.978 49.31 253.134 49.3526 253.263 49.4419C253.392 49.5311 253.487 49.6617 253.533 49.8123C253.553 49.9119 253.54 50.0153 253.497 50.1071C253.454 50.1989 253.382 50.2743 253.293 50.3221C252.814 50.59 252.269 50.7154 251.722 50.6837H251.399L250.835 50.6558ZM245.856 47.1242C245.576 46.7487 245.375 46.3201 245.265 45.8644C245.156 45.4086 245.14 44.9353 245.218 44.4731C245.292 44.3113 245.41 44.1741 245.559 44.0779C245.708 43.9816 245.882 43.9305 246.059 43.9305C246.236 43.9305 246.41 43.9816 246.559 44.0779C246.708 44.1741 246.826 44.3113 246.9 44.4731C246.978 44.9341 246.964 45.4061 246.857 45.8614C246.751 46.3167 246.555 46.7461 246.281 47.1242L246.059 47.495L245.856 47.1242ZM238.603 49.7752C238.653 49.6281 238.75 49.5015 238.878 49.4145C239.007 49.3275 239.16 49.2849 239.315 49.2932C239.952 49.3769 240.529 49.7102 240.922 50.2202L241.301 50.628H240.747H240.423C239.873 50.66 239.325 50.5347 238.843 50.2665C238.753 50.2228 238.679 50.152 238.631 50.0639C238.583 49.9759 238.564 49.8749 238.576 49.7752H238.603Z"
    fill="#FAFAFA" />
  <path fill-rule="evenodd" clip-rule="evenodd"
    d="M245.914 27.0605C245.441 27.0605 245.057 26.6501 245.057 26.1439L245.057 18.8105C245.057 18.3043 245.441 17.8939 245.914 17.8939C246.387 17.8939 246.77 18.3043 246.77 18.8105L246.77 26.1439C246.77 26.6501 246.387 27.0605 245.914 27.0605Z"
    fill="#544F51" />
  <path fill-rule="evenodd" clip-rule="evenodd"
    d="M264.472 42.8159C264.472 42.3413 264.881 41.9565 265.385 41.9565H272.694C273.199 41.9565 273.608 42.3413 273.608 42.8159C273.608 43.2905 273.199 43.6753 272.694 43.6753H265.385C264.881 43.6753 264.472 43.2905 264.472 42.8159Z"
    fill="#544F51" />
  <path fill-rule="evenodd" clip-rule="evenodd"
    d="M218.791 42.8159C218.791 42.3413 219.2 41.9565 219.704 41.9565H227.013C227.518 41.9565 227.927 42.3413 227.927 42.8159C227.927 43.2905 227.518 43.6753 227.013 43.6753H219.704C219.2 43.6753 218.791 43.2905 218.791 42.8159Z"
    fill="#544F51" />
  <path fill-rule="evenodd" clip-rule="evenodd"
    d="M258.225 31.8582C257.891 31.5226 257.909 30.9603 258.266 30.6023L263.434 25.4169C263.791 25.0589 264.351 25.0407 264.686 25.3763C265.02 25.712 265.002 26.2742 264.645 26.6322L259.477 31.8176C259.12 32.1756 258.56 32.1938 258.225 31.8582Z"
    fill="#544F51" />
  <path fill-rule="evenodd" clip-rule="evenodd"
    d="M227.391 25.3767C227.725 25.0411 228.286 25.0592 228.642 25.4172L233.811 30.6027C234.167 30.9607 234.185 31.5229 233.851 31.8585C233.516 32.1941 232.956 32.176 232.599 31.818L227.431 26.6326C227.074 26.2746 227.056 25.7123 227.391 25.3767Z"
    fill="#544F51" />
  <path
    d="M538.524 246.477L539.809 245.365C540.619 244.664 541.647 244.268 542.717 244.247C543.786 244.225 544.83 244.579 545.667 245.247C546.416 245.845 546.984 246.641 547.307 247.545C547.631 248.449 547.697 249.425 547.499 250.365C547.661 251.891 548.239 258.869 543.394 264.819C541.697 266.89 539.576 268.57 537.175 269.746C537.021 269.82 536.851 269.852 536.681 269.837C536.511 269.822 536.348 269.762 536.209 269.662C536.071 269.562 535.961 269.427 535.893 269.271C535.824 269.114 535.798 268.942 535.819 268.772L538.524 246.477Z"
    fill="#FF99F3" />
  <path
    d="M535.737 269.358C535.651 269.167 535.619 268.956 535.645 268.749L538.357 246.39L539.693 245.234C540.534 244.507 541.6 244.097 542.71 244.075C543.819 244.052 544.901 244.418 545.771 245.109C546.544 245.722 547.132 246.538 547.468 247.468C547.804 248.397 547.876 249.402 547.674 250.37C547.943 252.916 548.059 259.362 543.528 264.924C541.819 267.018 539.678 268.715 537.252 269.898C537.071 269.989 536.869 270.029 536.668 270.013C536.466 269.997 536.273 269.925 536.109 269.806C535.948 269.692 535.82 269.537 535.737 269.358ZM538.687 246.565L535.989 268.79C535.971 268.93 535.992 269.072 536.048 269.201C536.104 269.33 536.194 269.441 536.308 269.523C536.421 269.605 536.555 269.655 536.695 269.666C536.835 269.679 536.975 269.653 537.101 269.591C539.483 268.429 541.586 266.764 543.266 264.711C547.728 259.224 547.595 252.863 547.334 250.376L547.331 250.348L547.336 250.321C547.529 249.414 547.465 248.47 547.151 247.598C546.836 246.725 546.285 245.958 545.559 245.383C544.753 244.741 543.749 244.401 542.72 244.422C541.691 244.442 540.702 244.822 539.922 245.496L538.687 246.565Z"
    fill="black" />
  <path
    d="M521.749 248.268L521.236 250.681C521.084 251.4 521.011 252.134 521.019 252.869C521.031 253.749 521.101 254.627 521.228 255.498C521.501 257.383 522.177 262.032 525.932 265.82C528.811 268.726 532.187 269.801 534.261 270.218C534.401 270.248 534.546 270.241 534.682 270.197C534.817 270.152 534.939 270.072 535.034 269.965C535.129 269.858 535.194 269.728 535.222 269.587C535.25 269.447 535.241 269.301 535.195 269.165L528.389 248.349C528.148 247.614 527.689 246.969 527.073 246.502C526.457 246.035 525.714 245.769 524.943 245.738C524.199 245.714 523.47 245.955 522.886 246.418C522.301 246.88 521.898 247.536 521.749 248.268Z"
    fill="#FF99F3" />
  <path
    d="M522.662 261.362C521.558 258.946 521.238 256.736 521.062 255.524C520.934 254.646 520.863 253.76 520.851 252.872C520.843 252.124 520.917 251.377 521.072 250.646L521.581 248.233C521.737 247.46 522.162 246.768 522.779 246.28C523.396 245.792 524.166 245.539 524.951 245.568C525.757 245.603 526.533 245.882 527.176 246.37C527.819 246.858 528.3 247.53 528.554 248.298L535.361 269.11C535.415 269.274 535.426 269.45 535.392 269.62C535.357 269.79 535.279 269.948 535.165 270.078C535.05 270.208 534.904 270.305 534.74 270.36C534.576 270.416 534.401 270.426 534.231 270.392C531.946 269.933 528.63 268.789 525.813 265.947C524.501 264.618 523.434 263.066 522.662 261.362ZM521.922 248.301L521.415 250.716C521.264 251.422 521.193 252.143 521.202 252.865C521.21 253.739 521.276 254.611 521.398 255.476C521.68 257.414 522.34 261.953 526.055 265.702C528.809 268.481 532.056 269.601 534.295 270.051C534.405 270.073 534.519 270.066 534.626 270.03C534.732 269.995 534.828 269.931 534.902 269.846C534.977 269.763 535.028 269.661 535.05 269.551C535.073 269.441 535.066 269.327 535.03 269.221L528.225 248.404C527.992 247.702 527.553 247.089 526.965 246.644C526.377 246.2 525.668 245.945 524.932 245.915C524.23 245.892 523.543 246.119 522.992 246.555C522.441 246.992 522.063 247.611 521.922 248.301Z"
    fill="black" />
  <path
    d="M531.693 241.945C530.858 242.602 530.173 243.431 529.687 244.378C529.201 245.324 528.924 246.365 528.875 247.428L528.538 254.886C528.564 255.363 528.615 256.056 528.714 256.887C528.919 258.658 529.278 260.408 529.786 262.117C530.756 265.138 533.101 267.886 534.555 269.389C534.696 269.534 534.863 269.65 535.048 269.73C535.233 269.81 535.432 269.853 535.633 269.855C535.835 269.858 536.035 269.821 536.222 269.746C536.409 269.671 536.579 269.56 536.723 269.419C539.196 266.981 540.179 264.614 540.596 263.342C541.367 260.993 541.471 258.526 541.551 256.555C541.603 255.306 541.591 254.055 541.516 252.808L540.582 247.018C540.271 245.104 539.222 243.39 537.661 242.246L537.139 241.862C536.345 241.28 535.385 240.974 534.402 240.988C533.42 241.004 532.469 241.339 531.693 241.945Z"
    fill="#FF99F3" />
  <path
    d="M530.16 263.553C529.953 263.105 529.774 262.645 529.622 262.176C529.291 261.145 528.809 259.147 528.54 256.908C528.461 256.24 528.401 255.563 528.363 254.897L528.362 254.879L528.701 247.421C528.75 246.332 529.033 245.267 529.532 244.298C530.03 243.33 530.731 242.481 531.587 241.81C532.393 241.18 533.382 240.831 534.403 240.814C535.425 240.798 536.424 241.115 537.249 241.719L537.772 242.102C539.373 243.273 540.447 245.032 540.758 246.995L541.692 252.797C541.768 254.051 541.78 255.307 541.728 256.562C541.645 258.552 541.542 261.025 540.763 263.397C540.03 265.642 538.711 267.706 536.847 269.542C536.687 269.7 536.497 269.824 536.289 269.907C536.08 269.991 535.858 270.032 535.633 270.029C535.409 270.026 535.187 269.979 534.981 269.889C534.775 269.8 534.589 269.67 534.432 269.508C533.023 268.061 531.248 265.935 530.16 263.553ZM528.709 254.885C528.745 255.542 528.806 256.209 528.884 256.867C529.149 259.08 529.624 261.053 529.951 262.07C530.872 264.938 533.031 267.57 534.681 269.275C534.805 269.404 534.954 269.507 535.118 269.578C535.282 269.649 535.458 269.687 535.637 269.689C535.816 269.692 535.993 269.658 536.159 269.592C536.325 269.525 536.476 269.426 536.604 269.301C538.429 267.502 539.716 265.482 540.435 263.293C541.198 260.969 541.297 258.522 541.382 256.554C541.433 255.313 541.422 254.071 541.347 252.832L540.415 247.051C540.117 245.179 539.093 243.501 537.566 242.384L537.044 242.001C536.279 241.442 535.353 241.148 534.407 241.163C533.461 241.178 532.545 241.501 531.798 242.085C530.982 242.725 530.313 243.535 529.839 244.459C529.364 245.383 529.094 246.399 529.047 247.437L528.709 254.885Z"
    fill="black" />
  <defs>
    <clipPath id="clip0_142_4325">
      <rect width="381.229" height="293.75" fill="white" transform="translate(90.0748 43.5093)" />
    </clipPath>
  </defs>
</svg>