<svg width="128" height="26" viewBox="0 0 128 26" fill="none" xmlns="http://www.w3.org/2000/svg">
  <g id="GoDaddy_Logo">
    <path id="Path 27"
      d="M25.9124 1.18825C22.8779 -0.707725 18.883 -0.256008 15.32 1.98278C11.7681 -0.256008 7.77073 -0.707725 4.73989 1.18825C-0.0544999 4.18444 -0.637401 11.9008 3.43919 18.4241C6.44404 23.2333 11.1431 26.0513 15.3262 25.9993C19.5092 26.0513 24.2083 23.2333 27.2131 18.4241C31.2848 11.9008 30.7068 4.18444 25.9124 1.18825ZM5.64333 17.0466C4.80275 15.7141 4.16853 14.2621 3.7622 12.7398C3.40119 11.4185 3.26317 10.0461 3.3538 8.67933C3.53572 6.26852 4.51713 4.39111 6.11608 3.39238C7.71504 2.39366 9.82883 2.33301 12.08 3.22655C12.4179 3.36144 12.752 3.51738 13.0837 3.6894C11.8327 4.83005 10.7449 6.13769 9.85111 7.57541C7.37594 11.5357 6.62102 15.9427 7.48485 19.4562C6.79606 18.7132 6.17944 17.9063 5.64333 17.0466ZM26.8914 12.7386C26.4845 14.2606 25.8503 15.7126 25.0102 17.0454C24.4737 17.9063 23.8571 18.7147 23.1687 19.4599C23.941 16.3103 23.4162 12.4515 21.5227 8.8328C21.4925 8.7732 21.4501 8.72061 21.3983 8.67842C21.3464 8.63624 21.2863 8.60541 21.2218 8.58791C21.1573 8.57041 21.0898 8.56665 21.0238 8.57685C20.9577 8.58706 20.8946 8.61101 20.8384 8.64716L14.9351 12.3352C14.8812 12.3687 14.8346 12.4126 14.7977 12.4643C14.7608 12.516 14.7345 12.5744 14.7203 12.6362C14.706 12.6981 14.7041 12.7621 14.7146 12.8247C14.7252 12.8873 14.7479 12.9472 14.7816 13.001L15.6479 14.3858C15.6814 14.4396 15.7252 14.4863 15.7767 14.5231C15.8283 14.56 15.8866 14.5863 15.9484 14.6005C16.0101 14.6148 16.0741 14.6167 16.1366 14.6062C16.199 14.5957 16.2588 14.573 16.3125 14.5393L20.1391 12.1483C20.2629 12.5196 20.3866 12.8908 20.4795 13.2621C20.8404 14.5818 20.9788 15.9524 20.8891 17.3177C20.7072 19.7272 19.7258 21.6046 18.1268 22.6046C17.3021 23.1089 16.3571 23.3824 15.3905 23.3967H15.268C14.3014 23.3827 13.3563 23.1091 12.5317 22.6046C10.9315 21.6046 9.95011 19.7272 9.76819 17.3177C9.67811 15.9509 9.81613 14.5786 10.1766 13.2572C11.006 10.1999 12.7205 7.45589 15.1046 5.37004C16.1328 4.46758 17.3038 3.74237 18.5699 3.22407C20.8148 2.33054 22.9323 2.38994 24.5325 3.38991C26.1327 4.38987 27.1129 6.26605 27.2948 8.67686C27.3866 10.0438 27.2503 11.4165 26.8914 12.7386ZM57.3631 9.85875C54.2593 9.85875 51.7507 12.2819 51.7507 15.3648C51.7507 18.4265 54.2593 20.8101 57.3631 20.8101C60.488 20.8101 62.9966 18.4302 62.9966 15.3648C62.9966 12.2832 60.4917 9.85999 57.3631 9.85999V9.85875ZM57.3631 17.9315C55.9325 17.9315 54.8434 16.7744 54.8434 15.3437C54.8434 13.9131 55.9325 12.7386 57.3631 12.7386C58.8148 12.7386 59.9039 13.9168 59.9039 15.3474C59.9039 16.7781 58.8148 17.9364 57.3631 17.9364V17.9315ZM69.9951 5.62993H64.2837C64.222 5.62875 64.1607 5.64005 64.1035 5.66316C64.0462 5.68626 63.9943 5.7207 63.9507 5.76439C63.9071 5.80809 63.8728 5.86014 63.8499 5.91742C63.8269 5.97471 63.8158 6.03604 63.8171 6.09774V20.0218C63.8127 20.0855 63.8215 20.1495 63.843 20.2097C63.8645 20.2699 63.8982 20.3249 63.942 20.3714C63.9858 20.4179 64.0388 20.4549 64.0976 20.4799C64.1564 20.5049 64.2198 20.5175 64.2837 20.5168H69.9951C74.5655 20.5168 77.7411 17.4773 77.7411 13.0554C77.7411 8.60632 74.5655 5.62993 69.9951 5.62993ZM70.13 17.5763H67.0051V8.563H70.13C72.6596 8.563 74.4034 10.4553 74.4034 13.0492C74.4034 15.5999 72.6596 17.5763 70.13 17.5763ZM89.1096 10.1582H86.9624C86.8435 10.1676 86.7323 10.2206 86.6501 10.3069C86.5679 10.3932 86.5204 10.5069 86.5168 10.626V11.2634C86.028 10.4553 84.9228 9.85999 83.5466 9.85999C80.8685 9.85999 78.3599 11.9639 78.3599 15.3239C78.3599 18.6654 80.8462 20.8076 83.5256 20.8076C84.9067 20.8076 86.0342 20.2136 86.523 19.4055V20.0639C86.5237 20.1819 86.5708 20.295 86.6542 20.3786C86.7375 20.4622 86.8505 20.5096 86.9686 20.5106H89.1158C89.1748 20.512 89.2335 20.5013 89.2883 20.4794C89.3431 20.4574 89.3929 20.4245 89.4347 20.3828C89.4764 20.341 89.5093 20.2912 89.5313 20.2364C89.5533 20.1816 89.5639 20.1229 89.5625 20.0639V10.626C89.5644 10.5654 89.554 10.5049 89.5321 10.4483C89.5101 10.3917 89.4771 10.3401 89.4348 10.2965C89.3926 10.2529 89.3421 10.2182 89.2862 10.1944C89.2303 10.1707 89.1703 10.1584 89.1096 10.1582ZM84.1147 17.955C82.6927 17.955 81.6247 16.8622 81.6247 15.3462C81.6247 13.8302 82.6927 12.7386 84.1147 12.7386C85.5367 12.7386 86.6047 13.8289 86.6047 15.345C86.6047 16.861 85.5379 17.9538 84.1147 17.9538V17.955ZM101.162 5.62993H99.0152C98.9551 5.62812 98.8952 5.63829 98.8391 5.65986C98.783 5.68142 98.7317 5.71394 98.6883 5.75553C98.6448 5.79711 98.6101 5.84693 98.5861 5.90207C98.5622 5.95721 98.5494 6.01658 98.5486 6.0767V11.2213C98.0536 10.4553 96.9323 9.85999 95.5302 9.85999C92.8718 9.85999 90.4066 11.9639 90.4066 15.3239C90.4066 18.6654 92.8929 20.8076 95.5722 20.8076C96.9534 20.8076 97.9954 20.2136 98.5696 19.4055V20.0639C98.57 20.182 98.617 20.2953 98.7004 20.379C98.7839 20.4626 98.897 20.51 99.0152 20.5106H101.162C101.221 20.5121 101.28 20.5016 101.335 20.4797C101.39 20.4578 101.44 20.425 101.482 20.3832C101.523 20.3414 101.556 20.2915 101.578 20.2366C101.6 20.1817 101.611 20.1229 101.609 20.0639V6.07917C101.611 6.01988 101.601 5.96083 101.579 5.90564C101.557 5.85045 101.524 5.80029 101.483 5.75823C101.441 5.71617 101.391 5.68309 101.336 5.66103C101.281 5.63897 101.222 5.62839 101.162 5.62993ZM96.1675 17.981C94.7517 17.981 93.6923 16.8771 93.6923 15.345C93.6923 13.8128 94.7554 12.7089 96.1675 12.7089C97.5796 12.7089 98.6427 13.8128 98.6427 15.345C98.6427 16.8771 97.5845 17.981 96.1675 17.981ZM113.213 5.62993H111.069C111.009 5.62812 110.949 5.63828 110.893 5.65983C110.837 5.68138 110.785 5.71389 110.742 5.75546C110.698 5.79702 110.664 5.84683 110.639 5.90198C110.615 5.95713 110.602 6.01652 110.601 6.0767V11.2213C110.113 10.4553 108.985 9.85999 107.583 9.85999C104.925 9.85999 102.459 11.9639 102.459 15.3239C102.459 18.6654 104.947 20.8076 107.625 20.8076C109.007 20.8076 110.048 20.2136 110.622 19.4055V20.0639C110.623 20.1821 110.67 20.2954 110.754 20.379C110.838 20.4627 110.951 20.51 111.069 20.5106H113.213C113.272 20.5122 113.33 20.5016 113.385 20.4797C113.44 20.4578 113.49 20.4249 113.532 20.3831C113.573 20.3413 113.606 20.2914 113.628 20.2365C113.65 20.1816 113.66 20.1229 113.658 20.0639V6.07917C113.66 6.01994 113.65 5.96092 113.629 5.90573C113.607 5.85055 113.574 5.80037 113.533 5.75829C113.491 5.71621 113.441 5.68311 113.386 5.66104C113.331 5.63896 113.272 5.62838 113.213 5.62993ZM108.218 17.981C106.801 17.981 105.743 16.8771 105.743 15.345C105.743 13.8128 106.806 12.7089 108.218 12.7089C109.63 12.7089 110.693 13.8128 110.693 15.345C110.693 16.8771 109.637 17.981 108.222 17.981H108.218ZM124.97 10.8822L121.766 21.8707C121.147 23.8261 119.767 24.9956 117.62 24.9956C116.643 24.9956 115.755 24.7964 115.058 24.3979C114.652 24.1664 114.315 23.9548 114.315 23.6157C114.315 23.4053 114.383 23.2964 114.507 23.0996L115.143 22.1467C115.323 21.8806 115.455 21.794 115.648 21.794C115.801 21.7977 115.949 21.8492 116.072 21.9413C116.471 22.1999 116.843 22.4227 117.408 22.4227C118.069 22.4227 118.574 22.2111 118.846 21.424L119.121 20.5119H117.824C117.691 20.5161 117.561 20.4738 117.456 20.3922C117.351 20.3106 117.278 20.1949 117.25 20.0651L114.382 10.8822C114.276 10.5209 114.374 10.1595 114.904 10.1595H117.163C117.439 10.1595 117.632 10.2535 117.753 10.6483L119.871 18.0429L121.851 10.6483C121.914 10.3934 122.085 10.1595 122.425 10.1595H124.568C124.99 10.1582 125.117 10.4553 124.97 10.8822ZM50.9413 14.1507V20.0205C50.9423 20.0845 50.9304 20.1481 50.9064 20.2074C50.8824 20.2667 50.8467 20.3206 50.8014 20.3658C50.7562 20.4111 50.7023 20.4468 50.643 20.4708C50.5837 20.4948 50.5202 20.5067 50.4562 20.5057H48.684C48.6199 20.5068 48.5563 20.4951 48.4969 20.4711C48.4375 20.4472 48.3836 20.4115 48.3383 20.3662C48.293 20.3209 48.2573 20.267 48.2334 20.2076C48.2094 20.1482 48.1977 20.0846 48.1988 20.0205V18.4797C47.0739 19.9005 45.1172 20.7953 42.9044 20.7953C38.7486 20.7953 35.5012 17.6691 35.5012 13.2188C35.5012 8.59394 39.0073 5.40593 43.4366 5.40593C46.7063 5.40593 49.3201 6.81182 50.4809 9.6397C50.5134 9.71442 50.5315 9.79463 50.5341 9.87608C50.5341 10.0097 50.4463 10.1112 50.1629 10.209L48.0936 11.006C47.9688 11.0577 47.8289 11.06 47.7026 11.0122C47.5917 10.9467 47.505 10.8474 47.455 10.7288C46.7125 9.31669 45.3908 8.35756 43.3562 8.35756C40.7176 8.35756 38.8279 10.4181 38.8279 13.0901C38.8279 15.6803 40.4367 17.8102 43.4317 17.8102C45.0071 17.8102 46.2632 17.0677 46.8486 16.2521H44.9799C44.9159 16.2531 44.8524 16.2412 44.793 16.2172C44.7337 16.1932 44.6798 16.1575 44.6346 16.1122C44.5893 16.067 44.5536 16.0131 44.5296 15.9538C44.5056 15.8945 44.4937 15.831 44.4947 15.767V14.1717C44.4937 14.1077 44.5056 14.0442 44.5296 13.9849C44.5536 13.9256 44.5893 13.8717 44.6346 13.8265C44.6798 13.7812 44.7337 13.7455 44.793 13.7215C44.8524 13.6975 44.9159 13.6856 44.9799 13.6866H50.4562C50.519 13.6834 50.5817 13.693 50.6406 13.715C50.6996 13.7369 50.7534 13.7706 50.7988 13.814C50.8442 13.8575 50.8803 13.9098 50.9048 13.9677C50.9293 14.0255 50.9417 14.0878 50.9413 14.1507ZM125.028 7.98505V7.84273C125.028 7.83275 125.031 7.82306 125.038 7.8155C125.045 7.80917 125.054 7.80565 125.064 7.8056H125.968C125.973 7.80544 125.978 7.80623 125.982 7.80793C125.987 7.80963 125.991 7.81221 125.994 7.8155C126.001 7.82306 126.005 7.83275 126.004 7.84273V7.98505C126.004 7.99462 126.001 8.00385 125.994 8.01104C125.991 8.01434 125.987 8.01691 125.982 8.01861C125.978 8.02031 125.973 8.0211 125.968 8.02094H125.638V8.91324C125.638 8.92299 125.634 8.93225 125.627 8.93915C125.62 8.94604 125.611 8.95006 125.601 8.95037H125.43C125.425 8.95034 125.421 8.94934 125.417 8.94742C125.412 8.9455 125.409 8.94271 125.405 8.93923C125.402 8.93587 125.399 8.93184 125.397 8.92737C125.395 8.92291 125.394 8.9181 125.394 8.91324V8.02094H125.064C125.059 8.02131 125.054 8.02064 125.05 8.01897C125.045 8.01729 125.041 8.01466 125.038 8.01125C125.034 8.00784 125.032 8.00374 125.03 7.99921C125.028 7.99469 125.028 7.98986 125.028 7.98505ZM126.61 7.83778L126.857 8.41078L127.105 7.83778C127.108 7.82763 127.115 7.81895 127.124 7.81303C127.135 7.80769 127.146 7.80513 127.158 7.8056H127.445C127.45 7.80525 127.454 7.80589 127.459 7.80749C127.463 7.80909 127.467 7.81161 127.471 7.81488C127.474 7.81816 127.477 7.82211 127.478 7.82648C127.48 7.83085 127.481 7.83555 127.481 7.84025V8.91447C127.481 8.91917 127.481 8.92389 127.479 8.92832C127.477 8.93275 127.475 8.9368 127.472 8.94019C127.468 8.94357 127.464 8.94623 127.46 8.94799C127.456 8.94974 127.451 8.95055 127.446 8.95037H127.285C127.28 8.95053 127.276 8.94973 127.271 8.94803C127.267 8.94633 127.263 8.94376 127.259 8.94046C127.256 8.93715 127.253 8.93309 127.251 8.92859C127.25 8.9241 127.249 8.91927 127.249 8.91447V8.10386L126.983 8.69295C126.979 8.70407 126.973 8.71391 126.963 8.72141C126.953 8.72705 126.942 8.72963 126.93 8.72884H126.799C126.788 8.72945 126.777 8.72688 126.767 8.72141C126.757 8.71427 126.75 8.7043 126.747 8.69295L126.482 8.10386V8.91447C126.482 8.91916 126.482 8.92384 126.48 8.92824C126.478 8.93263 126.476 8.93665 126.473 8.94002C126.469 8.94339 126.465 8.94605 126.461 8.94783C126.457 8.94961 126.452 8.95048 126.447 8.95037H126.283C126.278 8.95031 126.274 8.94932 126.27 8.94746C126.265 8.94561 126.262 8.94292 126.258 8.93956C126.255 8.93621 126.253 8.93226 126.251 8.92794C126.25 8.92363 126.249 8.91905 126.249 8.91447V7.84025C126.249 7.83555 126.25 7.83085 126.252 7.82648C126.254 7.82211 126.256 7.81816 126.26 7.81488C126.263 7.81161 126.267 7.80909 126.271 7.80749C126.276 7.80589 126.281 7.80525 126.285 7.8056H126.564C126.575 7.80529 126.586 7.80785 126.596 7.81303C126.603 7.81982 126.607 7.82841 126.61 7.83778Z"
      fill="white" fill-opacity="0.5" />
  </g>
</svg>