<svg width="22" height="23" viewBox="0 0 22 23" fill="none" xmlns="http://www.w3.org/2000/svg">
  <g id="simple-icons:godaddy" clip-path="url(#clip0_109_134)">
    <path id="Vector"
      d="M18.9768 2.59906C16.6907 1.17456 13.6803 1.51098 10.9963 3.19856C8.31967 1.5119 5.30751 1.17456 3.02501 2.59906C-0.587578 4.85681 -1.02666 10.6712 2.04417 15.5855C4.30834 19.21 7.84942 21.3321 11 21.2926C14.1524 21.3321 17.6926 19.2091 19.9568 15.5855C23.0248 10.6712 22.5894 4.85681 18.9768 2.59906ZM3.70517 14.5506C3.07174 13.5463 2.59394 12.4519 2.28801 11.3046C2.01582 10.3089 1.91172 9.27479 1.98001 8.24481C2.11751 6.42981 2.85634 5.01448 4.06084 4.2619C5.26625 3.5084 6.85851 3.4644 8.55525 4.13631C8.81284 4.2399 9.06492 4.35631 9.31151 4.48648C8.36858 5.34472 7.54867 6.32904 6.875 7.41156C5.00959 10.3953 4.44125 13.7164 5.09209 16.3628C4.57346 15.8028 4.10879 15.1951 3.70425 14.5478L3.70517 14.5506ZM19.7148 11.3046C19.4081 12.4515 18.93 13.5455 18.2967 14.5496C17.8926 15.1981 17.4282 15.8071 16.9098 16.3683C17.4918 13.9951 17.0958 11.0883 15.6695 8.36215C15.647 8.31687 15.6153 8.27688 15.5762 8.24479C15.5372 8.21271 15.4918 8.18926 15.443 8.17601C15.3942 8.16276 15.3432 8.16 15.2933 8.16791C15.2434 8.17581 15.1957 8.19422 15.1534 8.2219L10.7058 11.0012C10.6242 11.0524 10.5663 11.1338 10.5446 11.2276C10.523 11.3214 10.5394 11.42 10.5903 11.5017L11.2429 12.5458C11.2681 12.5865 11.3011 12.6218 11.34 12.6497C11.3789 12.6775 11.4229 12.6974 11.4695 12.7081C11.5162 12.7189 11.5645 12.7203 11.6116 12.7122C11.6588 12.7042 11.7039 12.6869 11.7443 12.6613L14.6273 10.8601C14.7198 11.1406 14.8133 11.4156 14.8839 11.6997C15.1553 12.6952 15.2598 13.7292 15.191 14.7586C15.0535 16.5755 14.3147 17.9899 13.1102 18.7434C12.4884 19.1231 11.7761 19.3289 11.0477 19.3392H10.9551C10.2266 19.3291 9.51423 19.1234 8.89259 18.7434C7.68809 17.9899 6.94834 16.5755 6.81176 14.7586C6.74384 13.729 6.84761 12.6953 7.11884 11.6997C7.7439 9.39661 9.03546 7.32948 10.8313 5.7579C11.6062 5.07758 12.4887 4.53082 13.4429 4.13998C15.1342 3.46806 16.7301 3.51206 17.9346 4.26556C19.1409 5.01906 19.8798 6.43348 20.0163 8.24848C20.0856 9.27693 19.9842 10.3097 19.7148 11.3046Z"
      fill="#1BDBDB" />
  </g>
  <defs>
    <clipPath id="clip0_109_134">
      <rect width="22" height="22" fill="white" transform="translate(0 0.5)" />
    </clipPath>
  </defs>
</svg>