<svg width="600" height="400" viewBox="0 0 600 400" fill="none" xmlns="http://www.w3.org/2000/svg">
  <path
    d="M253.231 254.728C241.132 234.78 220.148 228.16 213.254 226.309C211.372 221.143 210.802 215.592 211.595 210.153C213.157 199.466 215.707 182.095 215.956 180.826L163.825 201.019L110.803 218.759C111.81 219.585 124.94 231.291 133.012 238.501C137.122 242.17 140.257 246.795 142.138 251.964C138.035 257.782 126.176 276.249 129.716 299.284C133.059 321.039 148.289 334.807 158.429 344.002C165.751 350.618 173.937 356.216 182.765 360.646C186.655 363.424 191.095 365.342 195.79 366.273C200.484 367.205 205.324 367.126 209.985 366.043C211.578 365.674 214.642 364.892 217.513 364.011C218.779 363.62 220.389 363.122 222.231 362.477L222.535 362.364L222.839 362.257C224.667 361.577 226.224 360.935 227.449 360.426C230.214 359.272 233.077 357.917 234.537 357.185C238.811 355.041 242.576 352.015 245.58 348.306C248.585 344.598 250.759 340.293 251.959 335.68C255.888 326.648 258.572 317.129 259.937 307.38C261.823 293.867 264.655 273.569 253.231 254.728Z"
    fill="#D6B49A" />
  <path
    d="M202.349 367.332C195.245 367.328 188.319 365.115 182.541 360.999C173.692 356.553 165.487 350.937 158.147 344.305C148.001 335.122 132.669 321.245 129.304 299.345C126.043 278.124 135.59 260.577 141.67 251.9C139.802 246.878 136.736 242.385 132.736 238.806C124.879 231.786 111.547 219.891 110.54 219.078C110.483 219.03 110.44 218.97 110.414 218.9C110.389 218.831 110.381 218.757 110.394 218.684C110.407 218.611 110.44 218.543 110.488 218.487C110.537 218.431 110.6 218.389 110.67 218.365L163.695 200.622L215.814 180.443C215.883 180.416 215.958 180.409 216.031 180.42C216.104 180.433 216.172 180.464 216.228 180.511C216.285 180.558 216.328 180.62 216.352 180.689C216.377 180.759 216.382 180.833 216.368 180.905C216.121 182.172 213.533 199.81 212.012 210.213C211.242 215.513 211.778 220.92 213.572 225.968C223.823 228.752 242.44 236.138 253.585 254.516C265.086 273.481 262.235 293.917 260.349 307.441C258.979 317.215 256.289 326.76 252.354 335.818C251.134 340.482 248.93 344.834 245.888 348.582C242.846 352.33 239.037 355.39 234.714 357.556C233.124 358.352 230.305 359.682 227.595 360.809C226.32 361.34 224.813 361.96 223.035 362.623L222.971 362.654L222.363 362.871L222.299 362.891C220.499 363.516 218.945 363.992 217.626 364.405C214.819 365.27 211.802 366.057 210.071 366.448C207.539 367.033 204.949 367.332 202.349 367.332ZM111.627 218.918C114.442 221.369 126.135 231.803 133.292 238.194C137.449 241.913 140.622 246.593 142.531 251.823C142.553 251.885 142.561 251.952 142.552 252.018C142.544 252.083 142.519 252.146 142.481 252.2C136.477 260.715 126.889 278.143 130.128 299.221C133.446 320.835 148.656 334.593 158.711 343.697C166.003 350.285 174.156 355.862 182.948 360.277L183.003 360.31C186.844 363.053 191.23 364.947 195.866 365.867C200.502 366.788 205.282 366.709 209.885 365.641C211.605 365.242 214.6 364.474 217.388 363.615C218.713 363.21 220.278 362.72 222.089 362.089L222.144 362.073L222.637 361.897L222.689 361.871C224.481 361.205 226.008 360.58 227.283 360.046C229.971 358.928 232.767 357.609 234.345 356.818C238.569 354.703 242.289 351.713 245.259 348.05C248.228 344.388 250.377 340.136 251.563 335.579C251.569 335.558 251.577 335.538 251.585 335.518C255.499 326.521 258.173 317.039 259.533 307.328C261.402 293.92 264.234 273.657 252.88 254.943C241.809 236.688 223.231 229.413 213.146 226.709C213.083 226.69 213.024 226.657 212.977 226.612C212.928 226.567 212.892 226.511 212.869 226.45C210.971 221.217 210.396 215.599 211.196 210.093C212.579 200.622 214.85 185.152 215.438 181.475L163.979 201.402L111.627 218.918Z"
    fill="black" />
  <path
    d="M166.238 207.677C195.277 197.203 217.511 185.122 215.9 180.692C214.289 176.261 189.442 181.161 160.403 191.634C131.363 202.107 109.129 214.189 110.74 218.619C112.351 223.049 137.199 218.15 166.238 207.677Z"
    fill="#030303" />
  <path
    d="M116.077 220.645C113.085 220.645 110.864 220.135 110.358 218.748C109.252 215.719 117.109 210.704 123.887 207.019C133.289 201.914 146.207 196.307 160.269 191.232C174.331 186.157 187.862 182.225 198.362 180.154C205.939 178.661 215.198 177.513 216.296 180.534C217.394 183.555 209.546 188.58 202.768 192.265C193.365 197.37 180.45 202.977 166.386 208.049C152.321 213.122 138.795 217.057 128.292 219.131C124.194 219.937 119.603 220.645 116.077 220.645ZM210.599 179.451C208.074 179.451 204.267 179.832 198.525 180.963C188.061 183.029 174.577 186.95 160.55 192.009C146.524 197.067 133.646 202.657 124.279 207.743C111.072 214.92 110.878 217.768 111.132 218.467C111.387 219.166 113.367 221.221 128.126 218.318C138.587 216.255 152.074 212.332 166.098 207.273C180.122 202.214 193.003 196.627 202.367 191.538C215.571 184.361 215.765 181.517 215.511 180.814C215.362 180.396 214.562 179.451 210.599 179.451Z"
    fill="#808080" />
  <path
    d="M221.622 373.161L221.597 395.967C221.597 397.669 223.439 399.058 225.712 399.058H225.795C228.069 399.058 229.916 397.679 229.916 395.972L229.94 373.421C229.94 373.274 228.019 373.146 225.685 373.146H221.622"
    fill="#818181" />
  <path
    d="M225.793 399.47H225.704C223.215 399.47 221.174 397.895 221.174 395.967L221.199 372.744H225.676C226.81 372.744 227.889 372.774 228.718 372.823C229.858 372.896 230.361 372.945 230.361 373.421L230.336 395.977C230.321 396.477 230.189 396.963 229.948 397.399C229.708 397.836 229.367 398.209 228.954 398.489C228.033 399.146 226.924 399.49 225.793 399.47ZM222.029 373.588L222.004 395.982C222.004 397.453 223.663 398.656 225.704 398.66H225.793C226.745 398.675 227.677 398.386 228.45 397.831C228.758 397.625 229.013 397.35 229.194 397.031C229.375 396.708 229.478 396.349 229.493 395.982L229.518 373.73C228.249 373.608 226.975 373.559 225.701 373.573H222.029V373.588Z"
    fill="#191818" />
  <path
    d="M440.089 373.161L440.064 395.967C440.064 397.669 441.907 399.058 444.179 399.058H444.262C446.539 399.058 448.386 397.679 448.386 395.972L448.411 373.421C448.411 373.274 446.475 373.146 444.154 373.146H440.089"
    fill="#818181" />
  <path
    d="M444.262 399.47H444.174C441.685 399.47 439.641 397.895 439.641 395.967L439.67 372.744H444.144C445.292 372.744 446.356 372.774 447.174 372.823C448.313 372.896 448.815 372.945 448.815 373.421L448.791 395.977C448.776 396.477 448.643 396.963 448.401 397.399C448.165 397.836 447.82 398.209 447.406 398.489C446.489 399.146 445.391 399.49 444.262 399.47ZM440.498 373.588L440.473 395.982C440.473 397.453 442.134 398.656 444.174 398.66H444.262C445.213 398.675 446.145 398.386 446.918 397.831C447.229 397.625 447.48 397.35 447.662 397.031C447.845 396.708 447.948 396.349 447.963 395.982L447.987 373.73C446.716 373.608 445.445 373.559 444.169 373.573H440.498V373.588Z"
    fill="#191818" />
  <path
    d="M461.247 367.514H165.276C164.488 367.514 163.732 367.828 163.174 368.382C162.616 368.937 162.304 369.687 162.304 370.472C162.304 371.257 162.616 372.013 163.174 372.567C163.732 373.122 164.488 373.436 165.276 373.436H458.345C458.739 373.436 459.128 373.357 459.498 373.2C459.862 373.048 460.192 372.823 460.468 372.543C460.744 372.258 460.961 371.925 461.109 371.557C461.252 371.194 461.321 370.801 461.311 370.404L461.247 367.514Z"
    fill="#DCDBDA" />
  <path
    d="M458.345 373.848H165.277C164.379 373.848 163.517 373.49 162.881 372.862C162.246 372.229 161.889 371.37 161.889 370.472C161.889 369.579 162.246 368.721 162.881 368.088C163.517 367.455 164.379 367.102 165.277 367.102H461.661L461.735 370.404C461.745 370.855 461.666 371.302 461.498 371.719C461.331 372.136 461.084 372.518 460.769 372.837C460.454 373.161 460.074 373.411 459.655 373.588C459.241 373.76 458.793 373.848 458.345 373.848ZM165.277 367.926C164.598 367.926 163.948 368.196 163.468 368.672C162.988 369.152 162.718 369.8 162.718 370.472C162.718 371.149 162.988 371.797 163.468 372.273C163.948 372.754 164.598 373.019 165.277 373.019H458.345C458.685 373.019 459.02 372.955 459.335 372.823C459.65 372.69 459.931 372.499 460.173 372.253C460.409 372.013 460.596 371.724 460.72 371.409C460.848 371.091 460.907 370.757 460.897 370.418L460.838 367.936L165.277 367.926Z"
    fill="black" />
  <path
    d="M150.479 213.579C150.479 213.579 139.799 254.197 141.58 271.212C142.642 281.368 142.31 298.199 141.856 310.15C141.716 313.913 140.105 317.473 137.365 320.068C134.626 322.664 130.977 324.09 127.195 324.044C123.415 323.997 119.801 322.481 117.128 319.818C114.454 317.156 112.932 313.558 112.885 309.792C112.811 303.734 112.117 299.125 112.748 295.693C116.528 275.092 110.737 274.765 114.152 255.968C114.737 253.933 115.341 251.887 115.967 249.83C119.235 239.09 122.817 229.107 126.613 219.37C130.689 218.987 135.241 217.781 140.144 216.691C143.914 215.854 147.362 214.603 150.479 213.579Z"
    fill="#A9D6FB" />
  <path
    d="M127.387 324.453C123.47 324.439 119.716 322.897 116.929 320.156C114.142 317.417 112.545 313.697 112.481 309.798C112.456 307.656 112.348 305.667 112.255 303.894C112.083 300.666 111.934 297.877 112.348 295.633C114.284 285.138 113.701 279.903 113.145 274.842C112.592 269.849 112.077 265.135 113.753 255.907V255.868C114.345 253.814 114.956 251.738 115.57 249.722C118.543 239.949 121.931 230.261 126.228 219.232L126.322 218.995L126.577 218.97C129.746 218.676 133.233 217.869 136.925 217.015C137.951 216.779 138.993 216.536 140.055 216.302C142.942 215.615 145.79 214.775 148.587 213.785C149.182 213.583 149.768 213.389 150.343 213.201L151.064 212.962L150.874 213.697C150.766 214.102 140.23 254.433 141.983 271.184C143.039 281.294 142.724 297.971 142.273 310.178C142.14 314.016 140.512 317.653 137.733 320.317C134.954 322.982 131.244 324.465 127.387 324.453ZM114.567 256.061C112.907 265.148 113.427 269.81 113.969 274.74C114.522 279.859 115.114 285.154 113.164 295.768C112.769 297.929 112.916 300.675 113.084 303.85C113.178 305.62 113.286 307.628 113.311 309.787C113.358 313.443 114.838 316.936 117.434 319.521C120.032 322.106 123.54 323.578 127.212 323.623C130.883 323.669 134.427 322.283 137.088 319.763C139.748 317.243 141.314 313.788 141.452 310.134C141.903 297.951 142.218 281.318 141.175 271.256C139.541 255.62 148.471 219.797 149.901 214.209L148.858 214.542C146.034 215.541 143.159 216.389 140.244 217.081C139.187 217.318 138.145 217.556 137.119 217.795C133.498 218.621 130.072 219.425 126.917 219.744C122.669 230.652 119.318 240.255 116.375 249.937C115.761 251.963 115.153 254.018 114.567 256.061Z"
    fill="black" />
  <path
    d="M155.465 300.286C152.998 300.286 151.192 296.726 150.487 295.329C145.623 285.738 152.976 269.006 155.83 263.066C158.557 269.18 165.321 285.774 160.459 295.329C159.724 296.748 157.924 300.286 155.465 300.286Z"
    fill="#A9D6FB" />
  <path
    d="M155.465 300.7C152.741 300.7 150.897 297.062 150.111 295.508C145.515 286.448 151.494 271.176 155.446 262.882L155.833 262.056L156.201 262.882C159.903 271.179 165.426 286.446 160.819 295.5C160.031 297.062 158.181 300.7 155.465 300.7ZM155.805 264.055C151.934 272.369 146.558 286.677 150.847 295.137C151.505 296.431 153.25 299.873 155.462 299.873C157.675 299.873 159.417 296.431 160.078 295.137C164.378 286.675 159.433 272.372 155.805 264.055Z"
    fill="black" />
  <path
    d="M486.214 257.501C455.585 231.112 417.63 236.977 412.156 237.913C359.468 246.287 316.856 265.451 310.333 289.764C308.992 294.784 307.908 299.87 307.095 305C294.057 302.797 272.171 301.718 259.425 315.525L259.362 315.597C255.742 319.54 258.28 325.913 263.618 326.466C266.815 326.796 270.655 327.116 274.987 327.325C283.977 327.76 303.219 341.645 315.27 350.873C322.784 359.423 333.393 364.663 344.78 365.448H344.962C348.303 367.68 357.127 372.916 369.342 372.724C375.787 372.616 382.119 371.041 387.859 368.117L432.21 367.514C452.737 373.446 469.224 372.827 479.271 371.576C493.708 369.776 499.128 366.186 501.557 364.201C509.934 357.316 512.984 346.593 515.142 335.856C519.572 313.796 512.437 280.098 486.214 257.501Z"
    fill="#F8F8F8" />
  <path
    d="M368.717 373.161C357.546 373.161 349.027 368.652 344.844 365.879H344.75C333.269 365.087 322.567 359.807 314.984 351.19C295.072 335.959 281.604 328.058 274.967 327.753C271.124 327.565 267.291 327.276 263.574 326.891C262.274 326.759 261.037 326.268 260.003 325.474C258.968 324.68 258.176 323.615 257.717 322.397C257.248 321.213 257.125 319.921 257.361 318.671C257.598 317.421 258.185 316.263 259.055 315.33L259.119 315.262C264.824 309.082 272.888 305.249 283.095 303.861C291.911 302.663 300.752 303.55 306.753 304.539C307.559 299.532 308.618 294.568 309.929 289.668C313.072 277.959 324.765 266.837 343.75 257.504C361.69 248.692 385.322 241.772 412.092 237.515C416.029 236.843 426.608 235.447 439.798 237.06C457.832 239.263 473.536 246.046 486.485 257.199C498.66 267.751 507.687 281.439 512.57 296.762C516.876 310.148 517.936 324.066 515.551 335.945C513.531 345.983 510.643 357.295 501.818 364.526C497.3 368.225 489.944 370.669 479.32 371.994C463.982 373.907 448.111 372.543 432.156 367.936L387.958 368.539C382.188 371.454 375.827 373.029 369.352 373.147C369.14 373.161 368.924 373.161 368.717 373.161ZM345.07 365.047L345.189 365.119C349.337 367.872 357.99 372.509 369.337 372.327C375.718 372.209 381.986 370.649 387.672 367.764L387.756 367.72L432.279 367.116L432.338 367.131C448.209 371.719 463.986 373.078 479.232 371.179C489.692 369.879 496.916 367.494 501.306 363.896C509.919 356.835 512.762 345.685 514.748 335.788C519.133 313.965 511.983 280.261 485.957 257.829C456.364 232.324 419.355 237.115 412.245 238.336C385.548 242.579 361.996 249.466 344.129 258.251C325.371 267.476 313.826 278.414 310.742 289.886C309.406 294.893 308.332 299.966 307.524 305.084L307.456 305.497L307.041 305.425C294.873 303.363 272.531 301.972 259.752 315.821L259.688 315.89C258.922 316.709 258.405 317.729 258.197 318.829C257.989 319.93 258.099 321.067 258.513 322.107C258.917 323.178 259.612 324.116 260.52 324.816C261.429 325.515 262.515 325.95 263.657 326.07C267.36 326.453 271.176 326.742 274.995 326.927C281.809 327.257 295.44 335.207 315.506 350.559L315.57 350.614C323.011 359.078 333.506 364.268 344.775 365.052L345.07 365.047Z"
    fill="black" />
  <path
    d="M306.797 304.591C304.203 297.004 300.254 282.621 299.917 269.026C299.667 258.927 300.835 248.844 303.388 239.068C296.128 224.213 293.012 207.689 294.367 191.224C294.438 190.425 294.713 189.656 295.167 188.993C295.62 188.33 296.237 187.793 296.958 187.434C297.678 187.076 298.48 186.906 299.285 186.943C300.09 186.98 300.872 187.221 301.557 187.644L338.088 210.255C351.683 206.577 365.962 206.183 379.744 209.104L412.875 182.117C413.398 181.693 414.018 181.414 414.684 181.308C415.344 181.202 416.024 181.273 416.655 181.514C417.28 181.755 417.832 182.157 418.251 182.68C418.67 183.202 418.941 183.827 419.039 184.488C421.735 203.173 420.168 222.222 414.457 240.222C416.999 247.967 417.674 256.198 416.433 264.251"
    fill="#F8F8F8" />
  <path
    d="M306.405 304.722C304.884 300.275 299.889 284.556 299.491 269.037C299.24 258.951 300.4 248.879 302.937 239.111C295.693 224.227 292.587 207.681 293.944 191.196C294.01 190.326 294.302 189.487 294.791 188.764C295.28 188.04 295.95 187.454 296.734 187.065C297.523 186.666 298.402 186.477 299.286 186.516C300.17 186.555 301.028 186.821 301.778 187.288L338.157 209.806C351.703 206.172 365.913 205.778 379.64 208.655L412.619 181.786C413.191 181.315 413.885 181.005 414.62 180.887C415.359 180.769 416.113 180.849 416.807 181.116C417.502 181.384 418.113 181.831 418.576 182.411C419.044 182.991 419.345 183.684 419.453 184.419C422.153 203.121 420.596 222.189 414.895 240.21C417.418 247.981 418.083 256.232 416.832 264.303L415.999 264.176C417.231 256.187 416.561 248.022 414.043 240.34L413.999 240.213L414.043 240.086C419.734 222.145 421.296 203.158 418.606 184.535C418.517 183.946 418.276 183.39 417.901 182.925C417.527 182.46 417.039 182.102 416.477 181.888C415.92 181.673 415.314 181.61 414.723 181.705C414.137 181.799 413.58 182.048 413.117 182.425L379.828 209.547L379.636 209.506C365.923 206.598 351.707 206.99 338.172 210.651L338 210.698L301.316 187.99C300.687 187.598 299.966 187.375 299.224 187.342C298.483 187.309 297.744 187.468 297.083 187.804C296.428 188.128 295.868 188.616 295.459 189.22C295.049 189.823 294.804 190.522 294.746 191.248C293.394 207.643 296.495 224.098 303.725 238.888L303.792 239.026L303.753 239.175C301.209 248.913 300.045 258.958 300.296 269.017C300.681 284.422 305.641 300.041 307.154 304.461L306.405 304.722Z"
    fill="black" />
  <path
    d="M117.722 353.469H117.642C117.642 353.469 115.292 353.439 113.095 351.341C111.367 349.689 112.86 342.41 118.073 333.97C122.526 342.545 123.626 349.703 121.989 351.341C119.887 353.458 117.722 353.469 117.722 353.469Z"
    fill="#A9D6FB" />
  <path
    d="M117.725 353.883H117.642C117.537 353.883 115.1 353.825 112.814 351.641C110.682 349.606 112.888 341.581 117.731 333.742L118.115 333.119L118.452 333.769C122.6 341.774 124.296 349.614 122.296 351.622C120.098 353.825 117.838 353.872 117.731 353.872L117.725 353.883ZM118.046 334.816C112.957 343.284 112.034 349.755 113.38 351.044C115.435 353.007 117.623 353.056 117.645 353.056H117.719C117.761 353.056 119.763 352.996 121.701 351.052C122.985 349.752 122.393 343.446 118.046 334.816Z"
    fill="black" />
  <path
    d="M516.28 321.802C520.375 323.68 526.854 327.422 531.21 334.469C541.281 350.758 533.777 374.609 519.774 387.155C509.604 396.266 497.901 397.699 488.692 398.881C483.292 399.568 458.271 402.674 441.089 387.155C437.61 384.02 429.471 376.66 430.673 367.568C431.294 362.888 434.487 356.64 439.926 354.902C450.357 351.559 456.6 368.716 476.182 370.826C479 371.13 491.082 372.087 500.518 364.493C502.06 363.249 504.612 360.913 507.707 355.681C510.885 350.303 516.26 339.156 516.28 321.802Z"
    fill="#666666" />
  <path
    d="M477.862 400C462.824 400 449.914 395.687 440.803 387.464C437.28 384.279 429.022 376.821 430.259 367.514C430.944 362.348 434.442 356.223 439.798 354.5C445.051 352.817 449.14 356.017 454.329 360.062C459.626 364.193 466.223 369.329 476.221 370.409C480.537 370.875 491.52 371.194 500.252 364.163C501.848 362.879 504.317 360.583 507.347 355.463C512.9 346.076 515.846 334.436 515.861 321.801V321.157L516.453 321.433C523.085 324.483 528.185 328.799 531.565 334.257C536.31 341.931 537.502 351.897 534.92 362.318C532.53 371.974 527.11 381.139 520.045 387.469C509.865 396.59 498.276 398.072 488.963 399.264L488.741 399.293C485.134 399.759 481.498 399.995 477.862 400ZM442.597 354.879C441.735 354.881 440.877 355.019 440.054 355.287C435.029 356.898 431.737 362.722 431.082 367.622C429.904 376.498 437.936 383.754 441.365 386.85C452.427 396.83 469.204 400.957 488.653 398.469L488.874 398.44C498.074 397.262 509.52 395.8 519.507 386.85C533.058 374.702 540.867 350.845 530.87 334.686C527.682 329.528 522.917 325.414 516.704 322.451C516.591 334.984 513.614 346.53 508.076 355.882C504.977 361.114 502.434 363.482 500.789 364.807C491.816 372.033 480.567 371.689 476.152 371.228C465.918 370.129 459.212 364.895 453.836 360.715C449.732 357.521 446.342 354.879 442.597 354.879Z"
    fill="#191818" />
  <path
    d="M387.963 368.475C387.869 368.475 387.775 368.446 387.702 368.387C387.628 368.328 387.578 368.245 387.559 368.151C387.539 368.063 387.549 367.965 387.593 367.882C387.633 367.798 387.702 367.73 387.79 367.69C387.978 367.602 406.741 358.757 411.067 342.08C411.077 342.025 411.101 341.973 411.131 341.927C411.165 341.88 411.205 341.841 411.254 341.811C411.303 341.781 411.358 341.762 411.412 341.753C411.466 341.744 411.525 341.747 411.579 341.761C411.634 341.775 411.683 341.8 411.727 341.835C411.772 341.869 411.811 341.912 411.836 341.961C411.865 342.01 411.88 342.065 411.885 342.121C411.895 342.177 411.885 342.233 411.87 342.287C409.559 351.212 403.223 357.851 398.32 361.838C395.186 364.411 391.772 366.624 388.135 368.431C388.081 368.461 388.022 368.475 387.963 368.475Z"
    fill="#191818" />
  <path
    d="M379.759 209.109L412.89 182.122C413.407 181.698 414.033 181.419 414.698 181.313C415.359 181.207 416.039 181.278 416.664 181.519C417.295 181.76 417.842 182.162 418.266 182.685C418.685 183.208 418.956 183.831 419.054 184.493C419.951 190.711 420.197 197.012 420.256 206.799C420.32 216.586 416.861 225.558 414.511 240.29C406.366 226.632 394.245 215.758 379.759 209.109Z"
    fill="#666666" />
  <path
    d="M414.738 241.48L414.151 240.502C406.051 226.915 393.999 216.099 379.586 209.484L378.985 209.209L412.629 181.795C413.205 181.324 413.895 181.013 414.634 180.895C415.368 180.778 416.122 180.857 416.817 181.124C417.517 181.392 418.128 181.839 418.591 182.419C419.054 183 419.36 183.693 419.468 184.428C420.399 190.913 420.616 197.541 420.675 206.802C420.715 212.797 419.419 218.582 417.911 225.276C416.935 229.633 415.832 234.57 414.91 240.356L414.738 241.48ZM380.532 209.013C394.482 215.56 406.209 226.023 414.27 239.117C415.157 233.783 416.186 229.187 417.098 225.098C418.645 218.178 419.862 212.706 419.833 206.807C419.774 197.582 419.552 190.981 418.63 184.543C418.542 183.954 418.3 183.399 417.926 182.934C417.551 182.468 417.059 182.111 416.502 181.896C415.945 181.682 415.339 181.619 414.748 181.713C414.156 181.807 413.604 182.056 413.141 182.434L380.532 209.013Z"
    fill="#191818" />
  <path
    d="M345.928 366.275C345.824 366.276 345.731 366.239 345.652 366.173C344.878 365.501 343.07 363.651 343.03 361.002C342.996 358.669 344.336 357.047 344.775 356.513C347.017 353.795 350.323 353.547 354.161 353.258C356.324 353.095 358.778 352.911 361.306 352.244C365.76 351.071 369.978 348.513 373.841 344.641C373.92 344.569 374.023 344.529 374.132 344.53C374.235 344.532 374.339 344.576 374.417 344.651C374.491 344.727 374.536 344.829 374.536 344.936C374.541 345.043 374.501 345.147 374.427 345.225C370.461 349.201 366.13 351.834 361.518 353.043C358.916 353.729 356.423 353.916 354.225 354.081C350.426 354.357 347.431 354.594 345.415 357.036C345.026 357.512 343.834 358.964 343.858 360.99C343.893 363.304 345.519 364.95 346.199 365.55C346.282 365.623 346.332 365.725 346.337 365.834C346.347 365.944 346.312 366.052 346.238 366.134C346.199 366.178 346.149 366.214 346.1 366.238C346.046 366.262 345.987 366.275 345.928 366.275Z"
    fill="#191818" />
  <path
    d="M358.098 281.872C381.464 281.872 400.409 267.447 400.409 249.653C400.409 231.859 381.464 217.434 358.098 217.434C334.728 217.434 315.782 231.859 315.782 249.653C315.782 267.447 334.728 281.872 358.098 281.872Z"
    fill="#666666" />
  <path
    d="M358.098 282.285C334.536 282.285 315.368 267.646 315.368 249.653C315.368 231.66 334.536 217.021 358.098 217.021C381.656 217.021 400.823 231.66 400.823 249.653C400.823 267.646 381.656 282.285 358.098 282.285ZM358.098 217.847C335.004 217.847 316.201 232.114 316.201 249.653C316.201 267.191 335.004 281.459 358.098 281.459C381.188 281.459 399.99 267.191 399.99 249.653C399.99 232.114 381.188 217.847 358.098 217.847Z"
    fill="#191818" />
  <path
    d="M331.131 256.262C335.945 256.262 339.842 252.379 339.842 247.588C339.842 242.797 335.945 238.913 331.131 238.913C326.322 238.913 322.424 242.797 322.424 247.588C322.424 252.379 326.322 256.262 331.131 256.262Z"
    fill="#DEDA5F" />
  <path
    d="M331.131 256.675C329.328 256.675 327.564 256.142 326.061 255.144C324.563 254.145 323.395 252.726 322.7 251.065C322.011 249.405 321.828 247.578 322.183 245.815C322.533 244.052 323.405 242.433 324.681 241.162C325.957 239.891 327.583 239.026 329.352 238.675C331.121 238.324 332.959 238.504 334.624 239.192C336.295 239.88 337.719 241.045 338.719 242.539C339.724 244.034 340.261 245.791 340.261 247.588C340.261 249.998 339.296 252.31 337.586 254.014C335.876 255.718 333.555 256.675 331.131 256.675ZM331.131 239.326C329.49 239.326 327.889 239.811 326.524 240.719C325.159 241.627 324.095 242.917 323.469 244.426C322.838 245.936 322.676 247.597 322.996 249.199C323.316 250.802 324.105 252.274 325.267 253.429C326.425 254.585 327.904 255.372 329.515 255.69C331.126 256.009 332.791 255.846 334.309 255.22C335.822 254.595 337.118 253.536 338.029 252.178C338.941 250.819 339.429 249.222 339.429 247.588C339.429 245.397 338.556 243.296 336.999 241.746C335.442 240.197 333.333 239.326 331.131 239.326Z"
    fill="#191818" />
  <path
    d="M418.936 184.665C418.936 184.665 399.576 210.825 397.64 216.883C396.191 221.414 402.789 219.169 406.214 217.748C406.361 217.687 406.524 217.672 406.682 217.706C406.839 217.739 406.982 217.819 407.091 217.934C407.204 218.05 407.278 218.196 407.302 218.353C407.327 218.511 407.302 218.672 407.233 218.816L404.937 223.644C404.794 223.954 404.74 224.3 404.79 224.639C404.839 224.978 404.987 225.296 405.213 225.552C405.44 225.809 405.74 225.993 406.071 226.081C406.406 226.17 406.756 226.159 407.081 226.051L409.825 225.142C409.968 225.094 410.126 225.088 410.274 225.125C410.421 225.163 410.555 225.242 410.658 225.353C410.761 225.464 410.83 225.603 410.855 225.753C410.885 225.903 410.865 226.057 410.806 226.197L409.815 230.928L414.516 240.29C420.148 222.311 421.661 203.303 418.941 184.665H418.936Z"
    fill="#F3D2C9" />
  <path
    d="M414.6 241.392L409.372 230.983L410.421 226.026C410.446 225.958 410.456 225.885 410.446 225.812C410.431 225.741 410.397 225.674 410.348 225.621C410.298 225.568 410.234 225.529 410.16 225.511C410.091 225.494 410.017 225.496 409.948 225.519L407.209 226.431C406.805 226.566 406.366 226.579 405.957 226.469C405.543 226.36 405.174 226.132 404.893 225.815C404.612 225.498 404.43 225.104 404.371 224.684C404.312 224.264 404.376 223.837 404.558 223.454L406.854 218.626C406.889 218.557 406.898 218.479 406.889 218.404C406.874 218.328 406.839 218.257 406.785 218.202C406.736 218.147 406.667 218.108 406.588 218.092C406.514 218.076 406.435 218.084 406.366 218.114C401.725 220.042 398.768 220.477 397.581 219.398C396.975 218.847 396.861 217.949 397.246 216.746C399.182 210.687 417.808 185.477 418.601 184.405L419.202 183.596L419.345 184.59C422.08 203.289 420.567 222.36 414.92 240.401L414.6 241.392ZM410.244 230.873L414.418 239.183C419.68 221.876 421.133 203.643 418.665 185.727C415.383 190.205 399.739 211.681 398.039 217.007C397.758 217.88 397.793 218.483 398.143 218.803C399.015 219.598 401.971 219.062 406.046 217.365C406.273 217.272 406.524 217.25 406.76 217.301C407.002 217.351 407.219 217.473 407.386 217.649C407.554 217.826 407.667 218.048 407.706 218.289C407.746 218.529 407.711 218.776 407.603 218.995L405.312 223.82C405.198 224.056 405.159 224.32 405.194 224.579C405.233 224.839 405.341 225.081 405.519 225.277C405.691 225.473 405.918 225.613 406.174 225.681C406.425 225.75 406.696 225.742 406.943 225.659L409.682 224.751C409.899 224.679 410.136 224.669 410.357 224.723C410.579 224.777 410.781 224.893 410.939 225.056C411.096 225.22 411.205 225.425 411.254 225.648C411.298 225.87 411.279 226.102 411.2 226.315L410.244 230.873Z"
    fill="black" />
  <path
    d="M337.906 210.274C325.78 202.787 313.2 194.826 301.07 187.339C298.562 185.791 294.527 187.785 294.491 190.723C294.416 197.004 293.385 203.968 295.321 213.579C296.363 218.767 296.828 221.449 297.881 225.007C299.297 229.79 301.123 234.443 303.34 238.914C304.767 236.115 306.432 233.443 308.317 230.928C309.909 228.805 315.664 221.449 326.016 215.507C329.786 213.348 333.772 211.595 337.906 210.274Z"
    fill="#666666" />
  <path
    d="M303.335 239.835L302.97 239.095C300.743 234.603 298.908 229.929 297.483 225.125C296.596 222.126 296.101 219.692 295.382 216.01C295.238 215.283 295.083 214.504 294.914 213.658C293.418 206.223 293.686 200.349 293.921 195.178C293.993 193.625 294.06 192.149 294.076 190.717C294.093 189.285 295.003 187.886 296.51 187.063C298.114 186.184 299.944 186.156 301.289 186.988C307.353 190.728 313.629 194.654 319.704 198.452C325.775 202.249 332.057 206.179 338.128 209.924L338.891 210.395L338.034 210.67C333.925 211.982 329.968 213.724 326.223 215.867C316.916 221.212 311.215 227.752 308.652 231.178C306.78 233.675 305.127 236.326 303.711 239.103L303.335 239.835ZM299.073 187.217C298.316 187.223 297.572 187.419 296.911 187.787C295.669 188.464 294.92 189.563 294.906 190.728C294.89 192.182 294.82 193.655 294.751 195.214C294.516 200.341 294.25 206.149 295.727 213.498C295.896 214.344 296.051 215.121 296.198 215.85C296.947 219.639 297.4 221.93 298.28 224.891C299.612 229.388 301.308 233.769 303.352 237.993C304.704 235.44 306.253 232.994 307.987 230.679C310.594 227.204 316.369 220.567 325.809 215.148C329.347 213.124 333.072 211.452 336.94 210.158C331.106 206.554 325.09 202.792 319.266 199.143C313.181 195.346 306.919 191.433 300.857 187.679C300.317 187.363 299.7 187.203 299.073 187.217Z"
    fill="#666262" />
  <path
    d="M294.491 190.171C294.491 190.171 315.339 208.329 317.916 213.085C318.069 213.361 318.714 214.633 318.236 215.208C317.325 216.31 313.422 213.534 311.638 214.955C311.456 215.102 311.303 215.281 311.19 215.484C310.988 215.86 310.899 216.285 310.939 216.709C310.973 217.134 311.131 217.538 311.397 217.874C311.993 218.664 312.777 219.931 312.703 221.135C312.703 221.492 312.594 221.841 312.387 222.134C311.85 222.784 310.86 222.79 310.584 222.79C308.776 222.79 307.795 221.052 307.751 220.972C307.514 220.782 307.219 220.681 306.915 220.688C306.612 220.694 306.32 220.808 306.092 221.008C305.948 221.159 305.857 221.352 305.832 221.558C305.768 222.035 305.847 222.52 306.059 222.952C306.659 224.161 305.957 228.06 305.547 229.817C304.929 232.438 303.903 234.947 302.505 237.252C300.016 231.838 296.656 223.208 295.039 212.744C294.16 207.029 293.837 201.243 294.074 195.467C294.178 193.311 294.353 191.493 294.491 190.171Z"
    fill="#F3D2C9" />
  <path
    d="M302.511 237.674H302.489C302.414 237.67 302.34 237.645 302.278 237.602C302.215 237.56 302.166 237.5 302.135 237.432C298.508 229.609 295.982 221.326 294.63 212.815C293.747 207.077 293.422 201.267 293.659 195.467C293.742 193.691 293.88 191.887 294.074 190.136C294.08 190.06 294.108 189.987 294.154 189.926C294.199 189.865 294.261 189.817 294.332 189.789C294.403 189.76 294.481 189.752 294.556 189.765C294.631 189.777 294.702 189.81 294.759 189.86C295.611 190.604 315.689 208.123 318.266 212.89C318.542 213.418 319.158 214.735 318.542 215.473C317.931 216.211 316.807 215.842 315.482 215.454C314.161 215.066 312.683 214.627 311.89 215.278C311.747 215.391 311.629 215.53 311.545 215.688C311.382 215.992 311.313 216.336 311.348 216.678C311.377 217.02 311.505 217.345 311.722 217.616C312.392 218.505 313.176 219.843 313.102 221.146C313.097 221.591 312.954 222.025 312.693 222.385C312.254 222.917 311.54 223.189 310.574 223.192C308.712 223.192 307.647 221.611 307.423 221.234C307.265 221.132 307.079 221.083 306.892 221.093C306.704 221.104 306.524 221.175 306.38 221.294C306.3 221.387 306.251 221.501 306.239 221.622C306.189 222.014 306.255 222.413 306.43 222.768C307.212 224.343 306.081 229.344 305.948 229.908C305.322 232.571 304.279 235.12 302.859 237.462C302.824 237.524 302.774 237.576 302.713 237.613C302.652 237.65 302.583 237.671 302.511 237.674ZM294.821 191.008C294.671 192.499 294.563 194.005 294.494 195.494C294.257 201.243 294.578 207.002 295.454 212.689C296.748 220.864 299.137 228.829 302.558 236.371C303.732 234.296 304.604 232.065 305.149 229.746C305.639 227.645 306.189 224.153 305.703 223.156C305.444 222.646 305.348 222.07 305.426 221.504C305.463 221.206 305.597 220.928 305.807 220.714C306.111 220.445 306.499 220.292 306.905 220.284C307.311 220.275 307.706 220.411 308.022 220.666C308.056 220.697 308.091 220.736 308.111 220.78C308.111 220.796 308.997 222.379 310.574 222.379C311.284 222.379 311.781 222.209 312.052 221.875C312.205 221.65 312.284 221.385 312.279 221.115C312.333 220.061 311.643 218.912 311.052 218.125C310.742 217.725 310.554 217.244 310.51 216.739C310.471 216.234 310.574 215.728 310.821 215.283C310.959 215.035 311.146 214.815 311.372 214.636C312.516 213.727 314.22 214.226 315.723 214.666C316.59 214.919 317.66 215.233 317.916 214.941C318.098 214.719 317.941 214.005 317.546 213.289C315.28 209.095 298.258 194.029 294.821 191.008Z"
    fill="black" />
  <path
    d="M331.131 253.784C334.57 253.784 337.354 251.009 337.354 247.588C337.354 244.166 334.57 241.392 331.131 241.392C327.697 241.392 324.913 244.166 324.913 247.588C324.913 251.009 327.697 253.784 331.131 253.784Z"
    fill="black" />
  <path
    d="M331.131 254.196C329.82 254.196 328.539 253.809 327.445 253.083C326.356 252.357 325.504 251.324 325.001 250.117C324.499 248.909 324.366 247.58 324.622 246.298C324.878 245.016 325.514 243.838 326.44 242.914C327.366 241.99 328.549 241.36 329.84 241.105C331.126 240.851 332.461 240.981 333.673 241.482C334.886 241.982 335.92 242.829 336.65 243.916C337.379 245.003 337.768 246.28 337.768 247.587C337.768 249.34 337.068 251.021 335.827 252.261C334.58 253.5 332.895 254.196 331.131 254.196ZM331.131 241.805C329.983 241.805 328.859 242.144 327.908 242.779C326.953 243.415 326.209 244.318 325.77 245.375C325.327 246.431 325.213 247.594 325.435 248.716C325.662 249.838 326.213 250.868 327.026 251.676C327.839 252.486 328.874 253.036 329.998 253.259C331.126 253.483 332.294 253.368 333.353 252.93C334.418 252.492 335.324 251.752 335.96 250.8C336.6 249.849 336.94 248.731 336.94 247.587C336.94 246.054 336.329 244.583 335.24 243.498C334.151 242.414 332.673 241.805 331.131 241.805Z"
    fill="#191818" />
  <path
    d="M386.997 256.262C391.806 256.262 395.704 252.379 395.704 247.588C395.704 242.797 391.806 238.913 386.997 238.913C382.183 238.913 378.285 242.797 378.285 247.588C378.285 252.379 382.183 256.262 386.997 256.262Z"
    fill="#DEDA5F" />
  <path
    d="M386.992 256.675C385.189 256.675 383.425 256.142 381.927 255.144C380.424 254.145 379.256 252.726 378.561 251.065C377.872 249.405 377.694 247.578 378.044 245.815C378.394 244.052 379.266 242.433 380.542 241.162C381.818 239.891 383.444 239.026 385.213 238.675C386.982 238.324 388.82 238.504 390.485 239.192C392.156 239.88 393.58 241.045 394.58 242.539C395.585 244.034 396.122 245.791 396.122 247.588C396.122 249.998 395.157 252.31 393.447 254.014C391.737 255.718 389.416 256.675 386.992 256.675ZM386.992 239.326C385.351 239.326 383.75 239.811 382.385 240.719C381.02 241.627 379.956 242.917 379.33 244.426C378.699 245.936 378.537 247.597 378.857 249.199C379.177 250.802 379.966 252.274 381.129 253.429C382.286 254.585 383.765 255.372 385.376 255.69C386.987 256.009 388.653 255.846 390.17 255.22C391.683 254.595 392.979 253.536 393.89 252.178C394.802 250.819 395.29 249.222 395.29 247.588C395.29 245.397 394.418 243.296 392.86 241.746C391.303 240.197 389.195 239.326 386.992 239.326Z"
    fill="#191818" />
  <path
    d="M386.997 253.784C390.431 253.784 393.215 251.009 393.215 247.588C393.215 244.166 390.431 241.392 386.997 241.392C383.558 241.392 380.774 244.166 380.774 247.588C380.774 251.009 383.558 253.784 386.997 253.784Z"
    fill="black" />
  <path
    d="M386.997 254.196C385.681 254.196 384.4 253.809 383.306 253.083C382.217 252.357 381.365 251.324 380.862 250.117C380.36 248.909 380.227 247.58 380.483 246.298C380.739 245.016 381.375 243.838 382.301 242.914C383.228 241.99 384.41 241.36 385.701 241.105C386.987 240.851 388.322 240.981 389.535 241.482C390.747 241.982 391.786 242.829 392.516 243.916C393.245 245.003 393.634 246.28 393.634 247.587C393.634 249.34 392.934 251.021 391.688 252.261C390.441 253.5 388.756 254.196 386.997 254.196ZM386.997 241.805C385.844 241.805 384.725 242.144 383.77 242.779C382.814 243.415 382.07 244.318 381.631 245.375C381.188 246.431 381.074 247.594 381.301 248.716C381.523 249.838 382.075 250.868 382.888 251.676C383.701 252.486 384.735 253.036 385.864 253.259C386.987 253.483 388.155 253.368 389.219 252.93C390.279 252.492 391.185 251.752 391.826 250.8C392.461 249.849 392.801 248.731 392.801 247.587C392.801 246.054 392.19 244.583 391.101 243.498C390.012 242.414 388.534 241.805 386.997 241.805Z"
    fill="#191818" />
  <path
    d="M356.093 249.275L358.926 249.653L361.523 249.284C361.636 249.268 361.749 249.284 361.853 249.33C361.956 249.377 362.045 249.453 362.104 249.547C362.163 249.642 362.198 249.752 362.198 249.865C362.198 249.979 362.168 250.089 362.104 250.184L359.591 254.116C359.517 254.228 359.419 254.319 359.3 254.384C359.182 254.448 359.049 254.483 358.916 254.485C358.778 254.487 358.645 254.457 358.527 254.396C358.409 254.336 358.305 254.247 358.226 254.138L355.526 250.192C355.462 250.098 355.428 249.987 355.423 249.874C355.423 249.76 355.452 249.648 355.511 249.551C355.571 249.455 355.659 249.377 355.763 249.328C355.866 249.279 355.979 249.261 356.093 249.275Z"
    fill="#F3D2C9" />
  <path
    d="M358.901 254.907C358.699 254.906 358.502 254.855 358.325 254.759C358.143 254.663 357.995 254.525 357.881 254.356L355.181 250.413C355.073 250.253 355.009 250.065 355.004 249.871C355.004 249.678 355.053 249.487 355.157 249.322C355.26 249.157 355.408 249.025 355.58 248.942C355.758 248.859 355.955 248.829 356.147 248.855L358.911 249.224L361.454 248.86C361.646 248.834 361.838 248.862 362.01 248.942C362.188 249.022 362.336 249.15 362.439 249.311C362.543 249.471 362.602 249.658 362.602 249.85C362.602 250.042 362.548 250.229 362.444 250.391L359.931 254.324C359.823 254.495 359.675 254.638 359.493 254.737C359.315 254.837 359.118 254.89 358.911 254.894L358.901 254.907ZM356.009 249.675C355.979 249.675 355.95 249.683 355.925 249.698C355.901 249.713 355.881 249.734 355.866 249.76C355.846 249.789 355.832 249.822 355.832 249.857C355.832 249.892 355.846 249.925 355.866 249.953L358.566 253.897C358.606 253.951 358.655 253.995 358.714 254.026C358.773 254.056 358.837 254.072 358.906 254.073C358.975 254.073 359.039 254.055 359.098 254.022C359.158 253.99 359.207 253.943 359.241 253.886L361.754 249.953C361.774 249.926 361.784 249.892 361.784 249.858C361.784 249.824 361.774 249.791 361.754 249.763C361.735 249.734 361.71 249.711 361.675 249.697C361.646 249.682 361.611 249.678 361.577 249.683L358.926 250.061L356.034 249.678L356.009 249.675Z"
    fill="black" />
  <path
    d="M354.792 259.198C354.516 259.198 354.215 259.181 353.905 259.151C353.797 259.14 353.693 259.086 353.624 259C353.555 258.915 353.521 258.806 353.531 258.697C353.545 258.587 353.6 258.486 353.683 258.416C353.767 258.347 353.88 258.314 353.989 258.325C355.61 258.484 356.797 258.181 357.517 257.421C358.571 256.32 358.31 254.571 358.305 254.552C358.29 254.443 358.315 254.331 358.384 254.241C358.448 254.152 358.547 254.092 358.655 254.076C358.768 254.059 358.882 254.086 358.97 254.152C359.059 254.217 359.118 254.316 359.138 254.425C359.138 254.511 359.463 256.587 358.133 257.989C357.364 258.796 356.246 259.198 354.792 259.198Z"
    fill="black" />
  <path
    d="M362.878 259.473C361.429 259.473 360.316 259.071 359.562 258.269C358.231 256.868 358.542 254.792 358.556 254.706C358.576 254.597 358.635 254.498 358.724 254.432C358.813 254.367 358.926 254.34 359.034 254.356C359.148 254.373 359.246 254.433 359.31 254.522C359.374 254.611 359.404 254.723 359.389 254.833C359.389 254.863 359.133 256.609 360.178 257.708C360.902 258.465 362.084 258.765 363.706 258.605C363.814 258.595 363.922 258.627 364.011 258.697C364.095 258.767 364.149 258.868 364.159 258.977C364.174 259.087 364.139 259.196 364.07 259.282C363.996 259.366 363.898 259.421 363.789 259.432C363.459 259.456 363.163 259.473 362.878 259.473Z"
    fill="black" />
  <path
    d="M416.724 250.892C416.625 250.891 416.531 250.855 416.452 250.791C416.379 250.726 416.329 250.637 416.315 250.54C416.3 250.443 416.324 250.344 416.374 250.26C416.428 250.177 416.507 250.115 416.6 250.085L436.098 244.164C436.201 244.141 436.31 244.157 436.398 244.209C436.487 244.261 436.556 244.346 436.586 244.445C436.62 244.545 436.61 244.653 436.566 244.747C436.517 244.841 436.438 244.914 436.339 244.952L416.847 250.873C416.807 250.885 416.763 250.892 416.724 250.892Z"
    fill="black" />
  <path
    d="M435.802 258.052H435.743L417.349 255.161C417.241 255.144 417.142 255.084 417.078 254.995C417.009 254.905 416.985 254.794 416.999 254.684C417.014 254.575 417.078 254.476 417.167 254.411C417.256 254.345 417.369 254.318 417.477 254.334L435.866 257.226C435.979 257.234 436.078 257.286 436.152 257.369C436.226 257.452 436.26 257.561 436.25 257.671C436.241 257.78 436.191 257.882 436.108 257.953C436.024 258.025 435.915 258.06 435.802 258.052Z"
    fill="black" />
  <path
    d="M283.706 258.878C283.596 258.89 283.486 258.858 283.399 258.789C283.313 258.72 283.258 258.62 283.246 258.51C283.233 258.401 283.266 258.291 283.335 258.205C283.404 258.119 283.505 258.064 283.615 258.052L300.346 254.334C300.45 254.318 300.556 254.341 300.644 254.4C300.731 254.459 300.792 254.549 300.815 254.651C300.839 254.753 300.822 254.861 300.768 254.951C300.715 255.042 300.629 255.109 300.528 255.139L283.798 258.856C283.768 258.867 283.738 258.875 283.706 258.878Z"
    fill="black" />
  <path
    d="M301.128 250.617H301.064L282.674 247.725C282.62 247.717 282.568 247.698 282.52 247.669C282.473 247.641 282.432 247.603 282.4 247.559C282.367 247.515 282.344 247.465 282.33 247.412C282.317 247.358 282.315 247.303 282.323 247.249C282.332 247.194 282.35 247.142 282.379 247.095C282.408 247.049 282.445 247.007 282.49 246.975C282.534 246.943 282.584 246.919 282.638 246.906C282.691 246.893 282.747 246.891 282.802 246.899L301.192 249.79C301.302 249.799 301.404 249.85 301.476 249.934C301.547 250.017 301.583 250.125 301.575 250.235C301.567 250.345 301.514 250.446 301.431 250.518C301.347 250.59 301.238 250.625 301.128 250.617Z"
    fill="black" />
  <path
    d="M94.0774 85.9419C106.403 91.551 120.432 104.147 137.138 120.221C162.798 144.911 178.841 184.777 183.873 199.804C182.278 200.542 175.514 188.051 173.918 188.789C168.589 174.266 158.08 150.553 135.479 127.381C117.006 108.44 100.911 94.4263 87.9133 88.2769L94.0774 85.9419Z"
    fill="#8BB174" />
  <path
    d="M183.716 200.258C182.732 200.258 181.344 198.458 178.559 194.542C177.038 192.405 174.743 189.178 174.073 189.178L173.664 189.365L173.534 188.935C164.851 165.253 152.307 145.227 135.186 127.672C114.722 106.68 99.6334 94.2828 87.7423 88.654L86.8628 88.2413L94.0971 85.4873L94.2577 85.5589C106.063 90.9345 119.531 102.693 137.431 119.917C148.587 130.657 159.077 145.294 168.615 163.441C177.375 180.137 182.48 194.344 184.267 199.672L184.386 200.022L184.048 200.176C183.945 200.228 183.832 200.257 183.716 200.258ZM174.198 188.354C175.177 188.498 176.562 190.307 179.234 194.063C180.478 195.817 182.24 198.295 183.205 199.121C180.44 191.064 164.442 147.075 136.851 120.513C119.091 103.433 105.726 91.752 94.0641 86.3935L88.9589 88.3208C100.806 94.1728 115.72 106.529 135.778 127.091C152.91 144.663 165.484 164.699 174.198 188.354Z"
    fill="black" />
  <path
    d="M162.594 208.804C141.942 191.455 113.021 170.392 103.375 166.702C78.5475 157.201 56.507 153.057 42.2346 152.917C43.7684 151.349 45.3053 149.783 46.8446 148.218C60.3952 148.158 79.9217 151.906 101.876 159.509C110.681 162.563 144.387 184.425 168.523 206.502L162.594 208.804Z"
    fill="#8BB174" />
  <path
    d="M162.516 209.277L162.325 209.12C142.268 192.259 113.062 170.843 103.225 167.087C81.1377 158.641 58.3233 153.486 42.2282 153.329H41.2575L46.6667 147.821H47.1589C61.2629 147.821 81.2294 151.935 101.998 159.137C110.662 162.141 144.032 183.573 168.785 206.226L169.275 206.675L162.516 209.277ZM43.2048 152.516C59.327 152.858 81.7714 157.994 103.538 166.316C113.422 170.096 142.583 191.452 162.687 208.33L167.748 206.358C143.526 184.328 110.072 162.788 101.737 159.899C81.0579 152.74 61.1964 148.631 47.1727 148.631H47.0318L43.2048 152.516Z"
    fill="black" />
  <path
    d="M184.161 200.305C179.25 193.724 167.691 173.556 160.954 167.048C147.501 154.08 131.931 143.485 114.91 135.716L108.74 138.04C127.615 147.003 144.732 159.251 159.284 174.205C164.178 179.242 174.339 197.824 178.205 202.845L184.161 200.305Z"
    fill="#8BB174" />
  <path
    d="M178.072 203.357L177.876 203.103C176.324 201.085 173.844 197.026 170.962 192.328C166.709 185.375 161.892 177.494 158.977 174.495C144.469 159.566 127.392 147.348 108.555 138.421L107.687 137.988L114.924 135.262L115.084 135.333C132.154 143.116 147.765 153.742 161.245 166.754C165.705 171.061 172.29 181.349 177.58 189.61C180.392 194.016 182.834 197.802 184.494 200.047L184.809 200.466L178.072 203.357ZM109.794 138.093C128.375 147.027 145.225 159.158 159.571 173.925C162.55 176.99 167.395 184.912 171.667 191.904C174.297 196.203 176.786 200.273 178.332 202.349L183.506 200.146C181.833 197.844 179.521 194.228 176.869 190.081C171.601 181.847 165.047 171.601 160.655 167.36C147.288 154.453 131.813 143.905 114.893 136.165L109.794 138.093Z"
    fill="black" />
  <path
    d="M365.563 351.267L374.964 372.194C370.274 372.724 365.529 372.631 360.862 371.92C360.862 371.92 352.787 370.987 347.426 366.964C343.696 364.176 343.518 362.213 343.474 361.626C343.257 358.944 345.031 357.047 345.721 356.394L345.928 356.206C348.416 354.042 352.841 353.748 353.117 353.728C355.95 353.555 359.862 352.825 365.563 351.267Z"
    fill="#666666" />
  <path
    d="M368.919 372.946C366.199 372.951 363.484 372.74 360.798 372.327C360.478 372.293 352.57 371.341 347.174 367.308C344.588 365.38 343.203 363.48 343.06 361.674C342.843 358.981 344.445 357.034 345.435 356.111L345.652 355.913C348.111 353.77 352.289 353.388 353.087 353.333C356.078 353.132 360.123 352.324 365.45 350.854L365.795 350.761L375.575 372.514L375.024 372.578C372.998 372.813 370.959 372.936 368.919 372.946ZM365.322 351.76C360.109 353.17 356.117 353.963 353.136 354.159C352.668 354.189 348.495 354.525 346.194 356.535C346.11 356.609 346.031 356.681 346.007 356.706C345.125 357.532 343.686 359.259 343.878 361.608C344.001 363.166 345.277 364.863 347.662 366.646C352.875 370.541 360.818 371.503 360.902 371.508C365.351 372.19 369.87 372.303 374.344 371.847L365.322 351.76Z"
    fill="#666262" />
  <path
    d="M280.88 328.612L289.237 303.902C283.56 303.819 277.922 304.849 272.644 306.931C268.845 308.511 265.303 310.646 262.136 313.265C261.859 313.499 257.987 316.812 257.849 320.003C257.849 320.177 257.849 320.339 257.849 320.35C257.913 323.041 259.876 324.756 260.631 325.307L260.858 325.472C263.173 327.103 265.996 326.921 270.158 327.023C272.506 327.081 273.678 327.111 275.136 327.298C277.088 327.555 279.011 327.995 280.88 328.612Z"
    fill="#666666" />
  <path
    d="M280.88 329.027C280.835 329.026 280.791 329.019 280.75 329.005C278.905 328.398 277.007 327.967 275.081 327.719C273.642 327.532 272.473 327.504 270.144 327.443C269.622 327.443 269.118 327.422 268.634 327.414C265.213 327.358 262.741 327.317 260.615 325.819L260.377 325.643C259.306 324.816 257.498 323.059 257.431 320.358C257.431 320.358 257.431 320.174 257.431 319.981C257.581 316.638 261.428 313.314 261.856 312.945C265.071 310.302 268.659 308.146 272.506 306.546C277.834 304.447 283.524 303.408 289.253 303.489C289.319 303.489 289.384 303.505 289.443 303.536C289.501 303.567 289.551 303.611 289.589 303.665C289.627 303.719 289.651 303.781 289.661 303.846C289.67 303.911 289.663 303.977 289.64 304.039L281.283 328.749C281.255 328.832 281.2 328.904 281.127 328.954C281.055 329.004 280.968 329.03 280.88 329.027ZM288.623 304.309C283.202 304.309 277.831 305.328 272.791 307.314C269.036 308.883 265.534 310.994 262.398 313.581C262.235 313.719 258.391 316.977 258.25 320.019C258.25 320.171 258.25 320.314 258.25 320.333C258.308 322.696 259.909 324.266 260.869 324.99L261.082 325.147C263.001 326.496 265.365 326.524 268.637 326.59C269.124 326.59 269.627 326.606 270.155 326.62C272.512 326.678 273.695 326.708 275.174 326.896C277.017 327.135 278.834 327.535 280.606 328.091L288.651 304.307L288.623 304.309Z"
    fill="#191818" />
  <path
    d="M37.2511 69.5535L29.494 65.3403C27.56 64.2898 25.9813 62.6927 24.9579 60.7498C23.934 58.8073 23.5112 56.6062 23.7418 54.4247L24.3917 48.3087C24.6519 45.8569 25.4437 43.491 26.712 41.3743C27.9808 39.2577 29.696 37.4403 31.7394 36.0488C32.9244 35.2421 34.3021 34.7608 35.7334 34.6539C37.1648 34.5464 38.5992 34.8167 39.8921 35.4374C40.6381 35.7833 41.4023 36.0885 42.1818 36.3515C51.1905 39.5221 59.3851 44.6347 66.1804 51.3238L54.1587 73.0318L37.2511 69.5535Z"
    fill="#898BFE" />
  <path
    d="M54.3715 73.4976L37.1072 69.9453L37.052 69.9149L29.2949 65.7046C27.288 64.6163 25.6512 62.9589 24.5908 60.9433C23.5309 58.9272 23.0958 56.6432 23.3407 54.3813L23.9906 48.2648C24.2552 45.7536 25.0658 43.3298 26.3651 41.1616C27.6645 38.9934 29.4215 37.1323 31.5156 35.708C32.7623 34.8611 34.2109 34.3562 35.7157 34.2434C37.2205 34.1305 38.7283 34.4146 40.0882 35.0662C40.8214 35.4048 41.5718 35.7045 42.3365 35.9641C51.4023 39.1519 59.6477 44.2979 66.4814 51.0326L66.7056 51.2499L54.3715 73.4976ZM37.3949 69.1602L53.9429 72.5669L65.666 51.3986C58.9594 44.8567 50.8968 39.8545 42.0434 36.7433C41.2501 36.4788 40.4721 36.1717 39.7123 35.8233C38.4839 35.234 37.122 34.9779 35.7625 35.0799C34.4031 35.1815 33.0944 35.6388 31.969 36.4047C29.9739 37.7609 28.2991 39.5336 27.0609 41.5993C25.8226 43.6649 25.0505 45.9744 24.7982 48.3668L24.1483 54.4828C23.9217 56.5833 24.3262 58.7034 25.3107 60.5748C26.2952 62.4461 27.8157 63.9843 29.6792 64.9941L37.3949 69.1602Z"
    fill="black" />
  <path
    d="M44.5603 62.2598L44.3691 62.2735C41.9384 62.4496 39.6295 63.4025 37.7862 64.9902C35.9429 66.578 34.6632 68.7153 34.137 71.0851L33.3959 74.423C32.6287 77.8797 33.1353 81.4963 34.8234 84.612C36.5115 87.7276 39.2683 90.1348 42.5913 91.3943L65.4033 100.041L68.915 75.2022L53.1525 64.5482C50.6292 62.8426 47.6014 62.036 44.5603 62.2598Z"
    fill="#898BFE" />
  <path
    d="M65.7433 100.612L42.4445 91.7829C39.0288 90.4881 36.1942 88.0133 34.4583 84.8103C32.7224 81.6073 32.201 77.8891 32.9899 74.3353L33.731 71.0003C34.2661 68.5382 35.5901 66.3161 37.5033 64.6685C39.4161 63.0204 41.8152 62.0361 44.339 61.8634L44.5297 61.8497C47.6615 61.6279 50.778 62.4586 53.3792 64.2097L69.358 75.01L65.7433 100.612ZM44.5908 62.673L44.3996 62.6867C42.0542 62.8472 39.8246 63.7617 38.0463 65.2935C36.2681 66.8254 35.0382 68.891 34.541 71.1794L33.8 74.5139C33.0712 77.8729 33.5713 81.3806 35.2102 84.405C36.849 87.4294 39.5186 89.7713 42.7376 91.0092L65.0658 99.4715L68.4676 75.4064L52.9313 64.8951C50.4839 63.247 47.5516 62.4644 44.6046 62.673H44.5908Z"
    fill="black" />
  <path
    d="M85.0101 47.0642L76.1247 35.3361C74.4292 33.0948 72.1276 31.3804 69.4895 30.3942C66.8515 29.4075 63.9857 29.1892 61.2274 29.7652L58.3154 30.3736C56.9066 30.6661 55.5925 31.3 54.4893 32.22C53.3866 33.1399 52.5287 34.3175 51.9931 35.6472C51.457 36.9768 51.2594 38.4174 51.4181 39.8418C51.5763 41.2656 52.0857 42.6287 52.9007 43.8092L60.3676 54.3563L83.7655 62.7857L85.0101 47.0642Z"
    fill="#898BFE" />
  <path
    d="M84.136 63.3612L60.1045 54.7031L52.5607 44.049C51.7098 42.8126 51.1786 41.3858 51.0146 39.8957C50.85 38.406 51.0579 36.8983 51.6186 35.5078C52.1799 34.1168 53.0771 32.8852 54.2306 31.9226C55.3846 30.9594 56.7588 30.2951 58.2326 29.9884L61.1471 29.3824C63.9769 28.799 66.9145 29.0252 69.6201 30.035C72.3262 31.0448 74.6894 32.7969 76.4371 35.0882L85.4167 46.9292L85.4029 47.0862L84.136 63.3612ZM60.6302 54.0147L83.3925 62.2155L84.5706 47.202L75.7818 35.5976C74.1286 33.4284 71.8926 31.769 69.3324 30.8122C66.7717 29.8549 63.9916 29.6391 61.3132 30.1891L58.3982 30.798C57.0594 31.0772 55.8098 31.6807 54.7613 32.5555C53.7123 33.4308 52.8968 34.55 52.3863 35.8139C51.8758 37.0778 51.6866 38.4477 51.835 39.8024C51.9838 41.1566 52.4657 42.4534 53.2383 43.578L60.6302 54.0147Z"
    fill="black" />
  <path
    d="M65.7817 84.9254C75.729 84.9254 83.7931 76.8953 83.7931 66.99C83.7931 57.0847 75.729 49.0547 65.7817 49.0547C55.8345 49.0547 47.7704 57.0847 47.7704 66.99C47.7704 76.8953 55.8345 84.9254 65.7817 84.9254Z"
    fill="#F8F59C" />
  <path
    d="M65.7734 85.3309C62.7756 85.3295 59.8236 84.6003 57.1737 83.2059C54.5233 81.8115 52.2548 79.7944 50.5647 77.3293C48.8746 74.8643 47.8138 72.0254 47.4748 69.0599C47.1358 66.0944 47.5285 63.0911 48.6194 60.3105C49.7098 57.5305 51.4649 55.0571 53.733 53.1053C56.001 51.1535 58.7125 49.7821 61.6334 49.1104C64.5539 48.4387 67.595 48.4863 70.4928 49.2502C73.3905 50.0137 76.0572 51.4695 78.2617 53.4919C80.9914 55.9933 82.8983 59.2571 83.734 62.8561C84.5696 66.4545 84.2947 70.2208 82.9451 73.6617C81.5955 77.1022 79.2343 80.0569 76.1705 82.1387C73.1067 84.2211 69.4827 85.3334 65.7734 85.3309ZM65.7872 49.4769C61.6867 49.4784 57.7157 50.9067 54.5607 53.514C51.4058 56.1218 49.2644 59.7453 48.508 63.7584C47.7512 67.7714 48.4262 71.9214 50.4164 75.4914C52.4065 79.0609 55.5866 81.8262 59.4068 83.3089C63.2274 84.7917 67.4482 84.8987 71.3393 83.6112C75.2304 82.3242 78.5474 79.7233 80.7174 76.2587C82.8874 72.7942 83.7734 68.6835 83.2225 64.6376C82.6716 60.5917 80.7184 56.8647 77.7004 54.1003C74.4553 51.1211 70.2011 49.47 65.7872 49.4769Z"
    fill="#191818" />
  <path
    d="M69.8965 47.0586L69.017 53.7859C68.6662 56.46 69.3077 58.9962 70.815 60.8965L82.8884 76.119L89.968 94.5117C91.4304 92.0245 92.682 89.4206 93.7098 86.7265C93.7098 86.7265 96.3809 79.242 96.0744 70.8622C95.5211 55.3089 84.5006 42.9361 82.6593 40.9181C81.8739 39.9726 80.8096 39.2984 79.6172 38.9903C77.3161 38.4393 75.4053 39.6537 74.4124 40.2817C71.0998 42.3773 70.1429 45.9708 69.8965 47.0586Z"
    fill="#898BFE" />
  <path
    d="M89.8828 95.4424L82.5213 76.326L70.4888 61.1585C68.9071 59.1644 68.2405 56.5291 68.6056 53.7231L69.4935 46.9599C69.8916 45.1892 71.0338 41.9234 74.1947 39.924C75.1846 39.2989 77.2363 37.9962 79.7256 38.5801C81.0047 38.9059 82.1464 39.6281 82.986 40.6428C86.0138 43.9611 95.9611 55.9727 96.5007 70.8376C96.8047 79.2037 94.139 86.7794 94.1139 86.8564C93.0727 89.5766 91.8083 92.207 90.3336 94.7211L89.8828 95.4424ZM70.3065 47.1307L69.427 53.8389C69.0924 56.4079 69.7034 58.8229 71.1387 60.6403L83.254 75.9129L83.2762 75.9708L90.0459 93.5563C91.3033 91.3106 92.3986 88.979 93.323 86.5782C93.3481 86.512 95.9587 79.0771 95.6601 70.8817C95.1289 56.2868 85.3393 44.4758 82.3523 41.2016C81.6236 40.3189 80.6322 39.6894 79.5206 39.4034C77.3915 38.897 75.5965 40.0314 74.6342 40.6398C71.7359 42.4601 70.6795 45.4811 70.3065 47.1307Z"
    fill="black" />
  <path
    d="M65.0988 100.077L51.4378 93.7903C48.6401 92.4984 46.4637 90.1643 45.3772 87.2901C44.2912 84.4158 44.3819 81.232 45.63 78.424L48.4701 72.0411C50.0567 68.477 52.9402 65.6434 56.5396 64.1106C60.1395 62.5778 64.1888 62.4596 67.8724 63.7794L84.2385 69.6589C87.5048 70.8355 90.2641 73.0974 92.0518 76.0634C93.8389 79.0294 94.5445 82.518 94.0503 85.9418C93.3097 89.446 91.6374 92.6873 89.2077 95.327C82.9195 102.032 73.9675 101.66 72.3745 101.583C69.8837 101.473 67.427 100.965 65.0988 100.077Z"
    fill="#898BFE" />
  <path
    d="M73.3955 102.024C73.0141 102.024 72.6682 102.024 72.3666 102.004C69.8281 101.892 67.3245 101.371 64.9525 100.462H64.9249L51.2723 94.1643C48.3834 92.818 46.1375 90.4015 45.0126 87.4296C43.8882 84.4577 43.9739 81.1659 45.2516 78.2558L48.0892 71.8729C49.727 68.22 52.6889 65.3173 56.3829 63.7453C60.0774 62.1737 64.2311 62.0481 68.0138 63.3939L84.38 69.273C87.7325 70.4893 90.5637 72.815 92.4006 75.8615C94.2375 78.9074 94.9683 82.4892 94.4711 86.0077V86.0381C93.7153 89.6159 92.0064 92.9249 89.5236 95.6186C84.2582 101.217 77.0875 102.024 73.3955 102.024ZM65.2516 99.7106C67.5374 100.583 69.9493 101.083 72.3942 101.192C75.5053 101.324 83.3457 100.994 88.9042 95.0676C91.2812 92.4863 92.917 89.3162 93.6413 85.8894C94.1094 82.5613 93.4167 79.1744 91.6778 76.2942C89.9394 73.4141 87.2605 71.2155 84.0892 70.0663L67.7236 64.1844C64.1385 62.9087 60.2021 63.0274 56.7012 64.5171C53.2003 66.0072 50.3932 68.7578 48.8411 72.2198L46.001 78.6057C44.8111 81.3165 44.7317 84.3836 45.7798 87.1524C46.8278 89.9211 48.9209 92.1723 51.6123 93.4264L65.2516 99.7106Z"
    fill="black" />
  <path
    d="M17.39 122.965L16.2562 119.069C15.5418 116.613 15.7108 113.987 16.7337 111.642C17.7566 109.297 19.5689 107.382 21.8586 106.225C23.9088 105.192 26.2075 104.748 28.4967 104.943C30.7859 105.137 32.9756 105.963 34.8204 107.327C38.3021 108.489 54.0537 114.162 62.1454 130.594C64.951 136.336 66.4834 142.613 66.6391 148.997C66.6465 149.404 66.5435 149.806 66.3415 150.161C66.139 150.515 65.8448 150.808 65.4896 151.011C65.1343 151.213 64.7307 151.317 64.3218 151.311C63.9123 151.305 63.5122 151.19 63.1634 150.977L17.39 122.965Z"
    fill="#FF99F3" />
  <path
    d="M64.3553 151.735C63.8547 151.733 63.3644 151.593 62.9392 151.33L17.0333 123.242L15.8552 119.191C15.1161 116.644 15.2915 113.919 16.3513 111.487C17.4112 109.054 19.2895 107.066 21.6625 105.863C23.7684 104.791 26.1326 104.325 28.4893 104.517C30.8465 104.71 33.1028 105.552 35.0057 106.951C40.813 108.895 54.9446 115.041 62.508 130.407C65.3506 136.199 66.8988 142.536 67.0461 148.981C67.0634 149.464 66.9476 149.942 66.7106 150.364C66.4736 150.785 66.1247 151.134 65.7019 151.372C65.293 151.608 64.8283 151.733 64.3553 151.735ZM17.7438 122.699L63.3733 150.625C63.6596 150.802 63.9882 150.898 64.3247 150.904C64.6608 150.91 64.9929 150.826 65.2851 150.66C65.5773 150.494 65.8192 150.252 65.9848 149.961C66.1508 149.669 66.2346 149.338 66.2272 149.003C66.0833 142.676 64.5662 136.454 61.7808 130.765C54.3139 115.625 40.3484 109.597 34.6795 107.697L34.6159 107.675L34.5632 107.636C32.7825 106.317 30.6662 105.52 28.4543 105.336C26.2424 105.152 24.0227 105.588 22.0468 106.596C19.8448 107.709 18.101 109.553 17.117 111.808C16.1326 114.064 15.969 116.591 16.6544 118.954L17.7438 122.699Z"
    fill="black" />
  <path
    d="M4.50259 161.188L9.23726 164.699C10.6489 165.743 12.172 166.629 13.7778 167.343C15.7044 168.189 17.6842 168.909 19.7044 169.499C24.0764 170.777 34.8613 173.921 46.8549 169.527C56.0528 166.156 61.7689 159.888 64.7505 155.796C64.9559 155.523 65.0845 155.2 65.124 154.861C65.1629 154.522 65.1111 154.178 64.9732 153.866C64.8352 153.553 64.6164 153.283 64.3395 153.082C64.0621 152.881 63.7364 152.757 63.395 152.723L11.322 146.844C9.48165 146.636 7.6211 146.993 5.98966 147.868C4.35871 148.742 3.03523 150.093 2.19611 151.737C1.40035 153.331 1.19488 155.152 1.61715 156.882C2.03893 158.611 3.06085 160.136 4.50259 161.188Z"
    fill="#FF99F3" />
  <path
    d="M33.8911 172.203C27.5309 172.203 22.4065 170.705 19.594 169.884C17.556 169.291 15.5595 168.564 13.6176 167.709C11.9828 166.984 10.4331 166.082 8.9968 165.018L4.25966 161.519C2.73515 160.412 1.65509 158.803 1.21064 156.977C0.76669 155.152 0.98743 153.228 1.83444 151.55C2.71643 149.835 4.10101 148.427 5.80488 147.513C7.50875 146.599 9.45159 146.223 11.3752 146.433L63.4398 152.307C63.8522 152.351 64.2454 152.503 64.5805 152.746C64.9155 152.99 65.1801 153.316 65.3481 153.694C65.5167 154.071 65.5817 154.486 65.5383 154.897C65.4945 155.307 65.3427 155.699 65.0988 156.033C61.8138 160.544 56.0089 166.61 47.0106 169.909C42.8081 171.441 38.3661 172.218 33.8911 172.203ZM4.74895 160.844L9.492 164.344C10.8771 165.372 12.3735 166.243 13.9527 166.941C15.8606 167.79 17.8226 168.512 19.8261 169.105C24.3227 170.418 34.8534 173.489 46.7199 169.141C55.5196 165.916 61.2028 159.973 64.4188 155.557C64.5785 155.34 64.678 155.085 64.7066 154.817C64.7352 154.55 64.6923 154.279 64.5819 154.034C64.4755 153.789 64.305 153.576 64.0887 153.419C63.8724 153.261 63.6182 153.163 63.3511 153.136L11.2757 147.254C9.5186 147.062 7.74525 147.408 6.19019 148.244C4.63513 149.08 3.37275 150.367 2.57009 151.936C1.81818 153.437 1.62453 155.156 2.02315 156.787C2.42226 158.417 3.38803 159.854 4.74895 160.844Z"
    fill="black" />
  <path
    d="M0.702634 133.307C1.29391 135.774 2.41341 138.084 3.98473 140.081C5.55605 142.077 7.54177 143.712 9.80637 144.872L25.6856 153.01C26.7504 153.425 28.3075 154.004 30.2129 154.612C34.2695 155.925 38.4331 156.884 42.6573 157.476C50.1986 158.368 58.5194 156 63.2427 154.334C63.6985 154.173 64.1178 153.924 64.4765 153.602C64.8352 153.279 65.1269 152.89 65.3344 152.454C65.5413 152.02 65.6605 151.548 65.6847 151.068C65.7088 150.587 65.6374 150.106 65.4748 149.653C62.6485 141.862 58.4834 137.377 56.136 135.207C51.7995 131.2 46.5371 128.526 42.3306 126.394C39.6679 125.041 36.9367 123.825 34.1478 122.751L20.6248 119.031C16.1518 117.808 11.3752 118.386 7.32595 120.639L5.96798 121.394C3.90934 122.54 2.28184 124.322 1.33136 126.472C0.381373 128.621 0.160629 131.021 0.702634 133.307Z"
    fill="#FF99F3" />
  <path
    d="M46.1533 158.09C44.9732 158.093 43.7941 158.027 42.6218 157.892C40.0498 157.586 35.2215 156.65 30.0857 155.011C28.5538 154.521 27.0219 153.979 25.5339 153.4L25.4955 153.384L9.61616 145.244C7.29736 144.056 5.26434 142.383 3.65656 140.339C2.04877 138.295 0.904656 135.928 0.302044 133.403C-0.261149 131.026 -0.0325294 128.532 0.952935 126.296C1.93889 124.061 3.62848 122.205 5.76694 121.011L7.12442 120.256C11.2713 117.94 16.1705 117.353 20.7499 118.626L34.3006 122.357C37.1027 123.437 39.8478 124.659 42.5248 126.017C46.7672 128.173 52.0434 130.853 56.4213 134.898C60.5691 138.72 63.7384 143.636 65.868 149.506C66.0498 150.011 66.1296 150.547 66.1025 151.083C66.0759 151.619 65.9434 152.144 65.7118 152.628C65.4807 153.113 65.1555 153.547 64.7549 153.906C64.3548 154.265 63.8872 154.541 63.3787 154.72C58.8214 156.344 52.4223 158.09 46.1533 158.09ZM25.8546 152.638C27.3205 153.21 28.8303 153.739 30.3405 154.223C35.4176 155.846 40.1823 156.771 42.7214 157.071C49.8783 157.917 57.7625 155.84 63.119 153.948C63.5236 153.806 63.8961 153.586 64.2149 153.3C64.5332 153.014 64.7923 152.668 64.9761 152.282C65.1604 151.896 65.2658 151.478 65.287 151.051C65.3077 150.625 65.2442 150.198 65.0988 149.796C63.0141 144.046 59.9084 139.243 55.868 135.509C51.5763 131.544 46.3548 128.9 42.1597 126.761C39.5142 125.418 36.8012 124.21 34.032 123.142L20.5287 119.427C16.1596 118.216 11.4871 118.776 7.53092 120.983L6.1759 121.738C4.19462 122.845 2.62921 124.563 1.71519 126.634C0.801172 128.705 0.588818 131.016 1.10964 133.218C1.68613 135.627 2.77901 137.883 4.31337 139.832C5.84725 141.781 7.78664 143.376 9.99802 144.509L25.8546 152.638Z"
    fill="black" />
  <path
    d="M101.821 111.794C101.41 111.787 101.002 111.869 100.626 112.037C100.251 112.205 99.9173 112.452 99.6487 112.763C99.3807 113.074 99.1846 113.439 99.0742 113.834C98.9638 114.229 98.9426 114.643 99.0111 115.046C100.117 121.567 102.933 135.953 106.849 139.588C111.956 144.33 120.164 171.634 142.992 165.875C158.667 161.921 153.85 145.629 149.287 135.799C146.759 130.335 142.747 125.684 137.702 122.374C132.691 119.116 127.24 116.585 121.514 114.856C115.124 112.93 108.496 111.899 101.821 111.794Z"
    fill="#FFA399" />
  <path
    d="M136.914 167.079C123.028 167.079 115.418 154.108 110.642 145.957C109.063 143.264 107.7 140.937 106.572 139.899C102.675 136.283 99.9099 122.825 98.6071 115.115C98.5278 114.651 98.5519 114.176 98.6786 113.722C98.8047 113.269 99.0304 112.849 99.3383 112.492C99.6468 112.135 100.03 111.851 100.462 111.659C100.893 111.467 101.362 111.372 101.834 111.381C108.551 111.485 115.221 112.523 121.649 114.465C127.41 116.206 132.893 118.753 137.934 122.03C143.046 125.379 147.111 130.09 149.668 135.625C152.895 142.576 156.053 152.299 152.776 159.142C151.081 162.684 147.826 165.085 143.097 166.274C141.078 166.798 139.001 167.068 136.914 167.079ZM101.768 112.204C101.421 112.205 101.079 112.281 100.765 112.427C100.45 112.573 100.172 112.785 99.9488 113.049C99.7251 113.313 99.562 113.622 99.4709 113.955C99.3797 114.288 99.3625 114.637 99.4201 114.977C100.454 121.093 103.275 135.708 107.13 139.285C108.347 140.414 109.674 142.677 111.356 145.541C116.685 154.629 125.606 169.835 142.882 165.476C147.353 164.347 150.426 162.097 152.007 158.787C155.146 152.233 152.046 142.763 148.896 135.972C146.404 130.576 142.441 125.985 137.459 122.721C132.483 119.487 127.071 116.972 121.386 115.253C115.031 113.335 108.438 112.309 101.799 112.204H101.768Z"
    fill="black" />
  <path
    d="M193.589 196.368C194.383 195.955 186.087 115.82 162.857 84.9782C139.628 54.1363 134.097 49.1792 134.097 49.1792C134.097 49.1792 133.543 72.5863 143.499 89.1086C153.455 105.631 165.069 133.169 168.388 139.227C171.706 145.285 183.874 200.636 183.874 200.636L193.589 196.368Z"
    fill="#8BB174" />
  <path
    d="M183.578 201.217L183.47 200.724C183.346 200.173 171.274 145.373 168.022 139.425C166.949 137.467 165.019 133.285 162.575 127.989C157.522 117.048 149.889 100.517 143.142 89.3205C133.239 72.8861 133.681 49.4049 133.681 49.1679L133.703 48.2705L134.373 48.8735C134.599 49.0742 140.199 54.2074 163.189 84.73C175.226 100.702 183.025 129.616 187.444 151.057C192.355 174.874 194.311 195.117 194.023 196.409C194.01 196.478 193.982 196.545 193.941 196.602C193.9 196.66 193.847 196.707 193.785 196.742H193.757L183.578 201.217ZM134.511 50.1787C134.549 54.8021 135.232 74.5798 143.858 88.8966C150.625 100.129 158.272 116.688 163.329 127.642C165.768 132.923 167.696 137.095 168.755 139.029C171.933 144.834 182.881 194.2 184.173 200.055L193.229 196.092C193.362 193.856 191.274 173.737 186.625 151.206C182.22 129.864 174.457 101.087 162.525 85.2422C143.874 60.4637 136.596 52.3596 134.511 50.1787Z"
    fill="black" />
  <path
    d="M484.475 153.979C519.338 163.525 555.372 143.12 564.959 108.404C574.546 73.6869 554.054 37.8047 519.191 28.2586C484.327 18.7124 448.293 39.1173 438.706 73.8339C429.12 108.551 449.611 144.433 484.475 153.979Z"
    fill="#F8F8F8" />
  <path
    d="M483.415 89.7042L481.827 95.4556L476.506 93.9989L475.316 98.3126L468.476 96.44L469.667 92.1261L450.896 86.9861L452.484 81.2352L475.79 69.9529L482.629 71.826L478.095 88.2475L483.415 89.7042ZM459.856 83.2531L471.256 86.3747L473.909 76.764L459.856 83.2531ZM497.896 104.902C487.332 102.01 483.654 95.7935 486.088 86.977C488.512 78.1985 494.856 74.7666 505.419 77.6589C515.945 80.5409 519.661 86.7684 517.247 95.509C514.823 104.287 508.422 107.785 497.896 104.902ZM499.474 99.1889C505.477 100.833 509.039 98.5925 510.407 93.6359C511.766 88.7172 509.845 85.0168 503.841 83.3724C497.837 81.7289 494.297 83.893 492.929 88.8496C491.549 93.8447 493.47 97.5448 499.474 99.1889ZM549.532 107.808L547.944 113.56L542.624 112.103L541.433 116.417L534.593 114.543L535.784 110.23L517.013 105.09L518.601 99.3386L541.907 88.0568L548.746 89.93L544.212 106.352L549.532 107.808ZM525.973 101.357L537.372 104.479L540.026 94.868L525.973 101.357Z"
    fill="#383838" />
</svg>