<svg width="107" height="26" viewBox="0 0 107 26" fill="none" xmlns="http://www.w3.org/2000/svg">
  <g id="OpenAI_Logo" clip-path="url(#clip0_32_2101)">
    <path id="Vector"
      d="M63.3152 10.1168V10.1255C63.2625 10.1255 63.2095 10.1342 63.1567 10.1342C63.104 10.1342 63.051 10.1255 62.9982 10.1255C59.8551 10.1255 57.9093 12.0891 57.9093 15.241V16.7906C57.9093 19.828 59.8816 21.7124 63.0422 21.7124C63.1069 21.7141 63.1717 21.7112 63.236 21.7037C63.28 21.7037 63.3152 21.7124 63.3592 21.7124C65.481 21.7124 66.9604 20.9378 67.9022 19.3351L66.0269 18.2519C65.4017 19.1763 64.5653 19.872 63.3679 19.872C61.7656 19.872 60.806 18.8859 60.806 17.2218V16.7816H68.237V14.9503C68.237 12.0096 66.309 10.1168 63.3152 10.1168ZM63.1567 11.9219C64.6183 11.9924 65.4987 12.9608 65.4987 14.5544V14.9946H60.7972V14.7391C60.7972 12.9782 61.6336 11.9924 63.1567 11.9219ZM51.6141 10.1255C50.2143 10.1255 49.0082 10.7067 48.3742 11.6751L48.2158 11.9216V10.3894H45.5568V25.2605H48.3477V20.0661L48.5062 20.3038C49.1049 21.193 50.2761 21.7211 51.6407 21.7211H51.7112H51.7726C54.0707 21.7211 56.3862 20.2243 56.3862 16.8699V14.9858C56.3862 12.5733 54.9598 10.1346 51.7548 10.1346L51.7374 10.1258H51.6759L51.6141 10.1255ZM50.9627 12.2211C52.5828 12.2476 53.5865 13.3479 53.5865 15.1091V16.7289C53.5865 18.4897 52.5738 19.5816 50.9362 19.6168C49.4131 19.5903 48.3477 18.4282 48.3477 16.7728V15.1087C48.3477 13.4359 49.4219 12.2563 50.9627 12.2211ZM87.1317 6.45415L81.7609 21.4572H84.7809L85.8111 18.2435H91.6747V18.2788L92.7048 21.4659H95.7248L90.3454 6.46289H90.0284L90.0196 6.45415H87.1317ZM88.7343 9.0339L90.9793 16.1217H86.4712L88.7343 9.0339ZM106.528 8.56718V6.45415H97.3184V8.56718H100.55V19.3264H97.3184V21.4394H106.528V19.3264H103.297V8.56718H106.528ZM76.2227 10.1258H76.1435H76.0995C74.5411 10.1258 73.4317 10.654 72.8858 11.6667L72.7186 11.9749V10.3901H70.0596V21.4485H72.8505V14.8626C72.8505 13.313 73.6869 12.4239 75.1308 12.3973C76.5132 12.4239 77.3056 13.2955 77.3056 14.8011V21.4485H80.0965V14.3254C80.0965 11.6929 78.6527 10.1255 76.2314 10.1255L76.2227 10.1258ZM36.5846 6.14592C32.4727 6.14592 29.9107 8.70819 29.9107 12.8375V15.0651C29.9107 19.1944 32.464 21.7564 36.5846 21.7564H36.6464H36.7078C40.8197 21.7564 43.3817 19.1944 43.3817 15.0651V12.8375C43.3817 8.70819 40.8197 6.14592 36.7078 6.14592H36.6464H36.5846ZM36.6464 8.38249C39.0941 8.40901 40.5027 9.97608 40.5027 12.6878V15.2236C40.5027 17.9353 39.0941 19.5027 36.6464 19.5289C34.1986 19.5023 32.7897 17.9353 32.7897 15.2236V12.6878C32.7897 9.97608 34.1986 8.4087 36.6464 8.38249ZM12.337 0.000562726C9.49299 0.000562726 6.96627 1.83188 6.08556 4.53486C5.18173 4.72117 4.32796 5.09784 3.58104 5.6398C2.83413 6.18176 2.21121 6.87659 1.75373 7.67804C0.327369 10.1433 0.653075 13.2425 2.56394 15.3555C1.97399 17.1254 2.17647 19.0621 3.11864 20.6648C4.53627 23.1388 7.38869 24.4066 10.18 23.8167C10.7911 24.5064 11.5423 25.0579 12.3834 25.4345C13.2245 25.811 14.1362 26.0039 15.0577 26.0002C17.9017 26.0002 20.4285 24.1689 21.3092 21.4659C23.1405 21.0872 24.7166 19.9425 25.6323 18.3228C27.0674 15.8575 26.7417 12.7583 24.8311 10.6453V10.6365C25.1225 9.76171 25.2238 8.83474 25.1281 7.91763C25.0325 7.00052 24.7421 6.1144 24.2764 5.31855C22.8585 2.8533 20.0057 1.5851 17.2235 2.17505C16.6095 1.48711 15.8564 0.937493 15.014 0.562613C14.1715 0.187734 13.259 -0.00384741 12.337 0.000562726ZM12.337 1.69117L12.3282 1.69991C13.4729 1.69991 14.5736 2.09612 15.454 2.82709C15.4187 2.84456 15.3482 2.88855 15.2955 2.91507L10.1185 5.89977C9.85426 6.04951 9.69577 6.33123 9.69577 6.63947V13.6478L7.46825 12.3624V6.56896C7.46775 5.27668 7.98025 4.03704 8.89315 3.12238C9.80605 2.20772 11.0447 1.69316 12.337 1.69117ZM18.5734 3.73151C19.4313 3.72987 20.2745 3.95473 21.0176 4.38339C21.7608 4.81205 22.3776 5.4293 22.8057 6.17275C23.3692 7.15891 23.5804 8.31229 23.3866 9.43043C23.3514 9.40391 23.2812 9.36897 23.2369 9.34245L18.0599 6.3487C17.9297 6.27505 17.7826 6.23634 17.633 6.23634C17.4834 6.23634 17.3363 6.27505 17.206 6.3487L11.1396 9.85285V7.28183L16.1494 4.38511C16.8859 3.95807 17.722 3.73253 18.5734 3.7312V3.73151ZM5.7689 6.39269V12.5471C5.7689 12.8553 5.92738 13.1283 6.19163 13.2868L12.249 16.7822L10.0124 18.0763L5.01142 15.1883C3.8938 14.5406 3.07885 13.4759 2.74545 12.2279C2.41205 10.98 2.58745 9.65071 3.23314 8.53193C3.80273 7.54462 4.69981 6.78802 5.7689 6.39269ZM17.3733 7.91577L22.383 10.8038C24.7163 12.1509 25.5084 15.1268 24.1613 17.4601L24.17 17.4689C23.5978 18.455 22.6997 19.2122 21.6343 19.5997V13.445C21.6343 13.1367 21.4758 12.855 21.2115 12.7056L15.1454 9.20112L17.3733 7.91577ZM13.6928 10.0378L16.2464 11.5169V14.4664L13.6928 15.9455L11.1396 14.4664V11.5169L13.6928 10.0378ZM17.7077 12.3624L19.9352 13.6478V19.4325C19.9352 22.1267 17.7517 24.3102 15.0665 24.3102V24.3015C13.9306 24.3015 12.8212 23.9053 11.9495 23.1746C11.9848 23.1572 12.064 23.1129 12.108 23.0864L17.285 20.1017C17.5492 19.9519 17.7164 19.6702 17.7074 19.362L17.7077 12.3624ZM16.2548 16.1483V18.719L11.2451 21.6069C8.91177 22.9453 5.93581 22.1529 4.58868 19.8284H4.59742C4.02525 18.8509 3.82246 17.6888 4.0162 16.5707C4.05146 16.5972 4.12196 16.6321 4.16595 16.6587L9.34293 19.6524C9.47316 19.7261 9.62024 19.7648 9.76987 19.7648C9.91949 19.7648 10.0666 19.7261 10.1968 19.6524L16.2548 16.1483Z"
      fill="white" fill-opacity="0.5" />
  </g>
  <defs>
    <clipPath id="clip0_32_2101">
      <rect width="105.657" height="26" fill="white" transform="translate(0.871582)" />
    </clipPath>
  </defs>
</svg>