<svg width="24" height="24" viewBox="0 0 24 24" fill="none" xmlns="http://www.w3.org/2000/svg">
  <path fill-rule="evenodd" clip-rule="evenodd"
    d="M21 12V11.617H18.5106V12C18.5106 15.5257 15.5257 18.5106 12 18.5106C8.47431 18.5106 5.48936 15.5257 5.48936 12C5.48936 8.47514 8.47434 5.48936 12 5.48936H12.383V3H12C7.11717 3 3 7.11809 3 12C3 16.8828 7.1172 21 12 21C16.8828 21 21 16.8828 21 12ZM20.617 12C20.617 12 20.617 12 20.617 12H18.8936C18.8936 12 18.8936 12 18.8936 12H20.617ZM3.75707 9.53675C4.84615 6.02147 8.18054 3.383 12 3.383C11.8718 3.383 11.7441 3.38595 11.617 3.39183C7.95918 3.56113 4.80958 6.13948 3.75707 9.53675ZM5.10638 12C5.10638 12 5.10638 12 5.10638 12V12Z"
    fill="currentColor" />
</svg>