<svg width="50" height="50" viewBox="0 0 50 50" fill="none" xmlns="http://www.w3.org/2000/svg">
  <rect width="50" height="50" rx="10" fill="#B2B2FF" />
  <path
    d="M22.462 38.418C20.8407 38.418 19.4093 38.0253 18.168 37.24C16.952 36.4293 16.002 35.302 15.318 33.858C14.634 32.3887 14.292 30.6533 14.292 28.652C14.292 26.6507 14.634 24.928 15.318 23.484C16.002 22.04 16.952 20.9253 18.168 20.14C19.4093 19.3547 20.8407 18.962 22.462 18.962C23.7033 18.962 24.8433 19.228 25.882 19.76C26.9207 20.292 27.706 21.0013 28.238 21.888V11.21H33.976V38H28.352V35.188C27.8453 36.176 27.06 36.9613 25.996 37.544C24.9573 38.1267 23.7793 38.418 22.462 38.418ZM24.172 34.124C25.388 34.124 26.376 33.6807 27.136 32.794C27.9213 31.9073 28.314 30.5267 28.314 28.652C28.314 26.8027 27.9213 25.4473 27.136 24.586C26.376 23.6993 25.388 23.256 24.172 23.256C22.956 23.256 21.968 23.6993 21.208 24.586C20.448 25.4473 20.068 26.8027 20.068 28.652C20.068 30.5267 20.448 31.9073 21.208 32.794C21.968 33.6807 22.956 34.124 24.172 34.124Z"
    fill="#151519" />
</svg>